<?xml version="1.0" encoding="UTF-8" standalone="no"?>
<!-- Created with Inkscape (http://www.inkscape.org/) -->

<svg
   xmlns:dc="http://purl.org/dc/elements/1.1/"
   xmlns:cc="http://creativecommons.org/ns#"
   xmlns:rdf="http://www.w3.org/1999/02/22-rdf-syntax-ns#"
   xmlns:svg="http://www.w3.org/2000/svg"
   xmlns="http://www.w3.org/2000/svg"
   xmlns:xlink="http://www.w3.org/1999/xlink"
   xmlns:sodipodi="http://sodipodi.sourceforge.net/DTD/sodipodi-0.dtd"
   xmlns:inkscape="http://www.inkscape.org/namespaces/inkscape"
   width="256"
   height="256"
   id="svg3007"
   version="1.1"
   inkscape:version="0.48.5 r10040"
   sodipodi:docname="envelope_empty.svg"
   inkscape:export-filename="D:\Pictures\Graphics\envelope_empty.png"
   inkscape:export-xdpi="180"
   inkscape:export-ydpi="180">
  <defs
     id="defs3009">
    <inkscape:perspective
       sodipodi:type="inkscape:persp3d"
       inkscape:vp_x="0 : 526.18109 : 1"
       inkscape:vp_y="0 : 1000 : 0"
       inkscape:vp_z="744.09448 : 526.18109 : 1"
       inkscape:persp3d-origin="372.04724 : 350.78739 : 1"
       id="perspective3015" />
    <inkscape:perspective
       id="perspective2964"
       inkscape:persp3d-origin="0.5 : 0.33333333 : 1"
       inkscape:vp_z="1 : 0.5 : 1"
       inkscape:vp_y="0 : 1000 : 0"
       inkscape:vp_x="0 : 0.5 : 1"
       sodipodi:type="inkscape:persp3d" />
    <filter
       color-interpolation-filters="sRGB"
       inkscape:collect="always"
       id="filter3726">
      <feGaussianBlur
         inkscape:collect="always"
         stdDeviation="1.6368055"
         id="feGaussianBlur3728" />
    </filter>
    <filter
       color-interpolation-filters="sRGB"
       inkscape:collect="always"
       id="filter3668">
      <feGaussianBlur
         inkscape:collect="always"
         stdDeviation="0.93375"
         id="feGaussianBlur3670" />
    </filter>
    <linearGradient
       inkscape:collect="always"
       xlink:href="#linearGradient3764"
       id="linearGradient3770"
       x1="449.4375"
       y1="627.67395"
       x2="449.4375"
       y2="570.0802"
       gradientUnits="userSpaceOnUse"
       gradientTransform="translate(12.12183,0)" />
    <linearGradient
       id="linearGradient3764">
      <stop
         style="stop-color:#fec300;stop-opacity:1;"
         offset="0"
         id="stop3766" />
      <stop
         style="stop-color:#ffffff;stop-opacity:1;"
         offset="1"
         id="stop3768" />
    </linearGradient>
    <filter
       color-interpolation-filters="sRGB"
       inkscape:collect="always"
       id="filter3748">
      <feGaussianBlur
         inkscape:collect="always"
         stdDeviation="1.3539827"
         id="feGaussianBlur3750" />
    </filter>
    <clipPath
       clipPathUnits="userSpaceOnUse"
       id="clipPath3803">
      <path
         id="path3805"
         d="m 449.4375,249.3125 -72.46875,49.90625 c -1.18414,0.61731 -2.32893,1.3783 -3.40625,2.3125 l -0.0625,0.0625 c -6.36098,5.56419 -10.65625,16.37483 -10.65625,28.84375 l 0,32.15625 c 0,11.18587 3.47633,20.9793 8.78125,26.90625 0.0893,-0.0998 0.12835,-0.24615 0.21875,-0.34375 1.09141,-1.17836 2.27159,-2.2023 3.5,-3.03125 1.22841,-0.82895 2.53668,-1.43884 3.875,-1.875 1.33831,-0.43616 2.70388,-0.6875 4.125,-0.6875 l 66.09375,-9.375 66.09375,9.375 c 1.42112,0 2.78669,0.25134 4.125,0.6875 1.33832,0.43616 2.64659,1.04605 3.875,1.875 1.22841,0.82895 2.37734,1.85289 3.46875,3.03125 0.0904,0.0976 0.1607,0.24395 0.25,0.34375 5.30492,-5.92695 8.8125,-15.72038 8.8125,-26.90625 l 0,-32.15625 c 0,-14.6917 -5.9705,-27.0578 -14.25,-31.28125 l -72.375,-49.84375 z"
         style="fill:url(#linearGradient3807);fill-opacity:1;stroke:none" />
    </clipPath>
    <radialGradient
       inkscape:collect="always"
       xlink:href="#linearGradient2849"
       id="radialGradient2883"
       gradientUnits="userSpaceOnUse"
       gradientTransform="matrix(1.2317276,-5.5542416e-5,2.3912398e-5,0.53028942,-41.625482,311.48232)"
       cx="407.59628"
       cy="657.90198"
       fx="407.59628"
       fy="657.90198"
       r="88.515625" />
    <linearGradient
       id="linearGradient2849">
      <stop
         style="stop-color:#ffffff;stop-opacity:1;"
         offset="0"
         id="stop2851" />
      <stop
         style="stop-color:#fec300;stop-opacity:1;"
         offset="1"
         id="stop2853" />
    </linearGradient>
    <filter
       color-interpolation-filters="sRGB"
       inkscape:collect="always"
       id="filter3754">
      <feGaussianBlur
         inkscape:collect="always"
         stdDeviation="0.9702558"
         id="feGaussianBlur3756" />
    </filter>
    <linearGradient
       inkscape:collect="always"
       xlink:href="#linearGradient2849"
       id="linearGradient3735"
       gradientUnits="userSpaceOnUse"
       gradientTransform="matrix(1.0065283,0,0,1,50.68062,2.9041499)"
       x1="409.11179"
       y1="638.19965"
       x2="409.11179"
       y2="720.02985" />
    <linearGradient
       id="linearGradient2987">
      <stop
         style="stop-color:#ffffff;stop-opacity:1;"
         offset="0"
         id="stop2989" />
      <stop
         style="stop-color:#fec300;stop-opacity:1;"
         offset="1"
         id="stop2991" />
    </linearGradient>
    <linearGradient
       y2="720.02985"
       x2="409.11179"
       y1="638.19965"
       x1="409.11179"
       gradientTransform="matrix(1.0065283,0,0,1,50.68062,2.9041499)"
       gradientUnits="userSpaceOnUse"
       id="linearGradient3005"
       xlink:href="#linearGradient2849"
       inkscape:collect="always" />
  </defs>
  <sodipodi:namedview
     id="base"
     pagecolor="#ffffff"
     bordercolor="#666666"
     borderopacity="1.0"
     inkscape:pageopacity="0.0"
     inkscape:pageshadow="2"
     inkscape:zoom="0.98994949"
     inkscape:cx="130.64822"
     inkscape:cy="146.91218"
     inkscape:document-units="px"
     inkscape:current-layer="layer1"
     showgrid="false"
     inkscape:window-width="1600"
     inkscape:window-height="847"
     inkscape:window-x="-8"
     inkscape:window-y="-8"
     inkscape:window-maximized="1" />
  <metadata
     id="metadata3012">
    <rdf:RDF>
      <cc:Work
         rdf:about="">
        <dc:format>image/svg+xml</dc:format>
        <dc:type
           rdf:resource="http://purl.org/dc/dcmitype/StillImage" />
        <dc:title></dc:title>
      </cc:Work>
    </rdf:RDF>
  </metadata>
  <g
     inkscape:label="Ebene 1"
     inkscape:groupmode="layer"
     id="layer1"
     transform="translate(0,-796.36218)">
    <g
       id="g3726"
       transform="matrix(1.3854657,0,0,1.3854657,-511.49008,46.427009)">
      <g
         transform="translate(12.12183,0)"
         style="fill:#000000;filter:url(#filter3726)"
         id="g2944">
        <path
           id="path2946"
           transform="translate(0,308.2677)"
           d="m 449.4375,249.3125 -72.46875,49.90625 c -1.18414,0.61731 -2.32893,1.3783 -3.40625,2.3125 l -0.0625,0.0625 c -6.36098,5.56419 -10.65625,16.37483 -10.65625,28.84375 l 0,32.15625 c 0,11.18587 3.47633,20.9793 8.78125,26.90625 0.0893,-0.0998 0.12835,-0.24615 0.21875,-0.34375 1.09141,-1.17836 2.27159,-2.2023 3.5,-3.03125 1.22841,-0.82895 2.53668,-1.43884 3.875,-1.875 1.33831,-0.43616 2.70388,-0.6875 4.125,-0.6875 l 66.09375,-9.375 66.09375,9.375 c 1.42112,0 2.78669,0.25134 4.125,0.6875 1.33832,0.43616 2.64659,1.04605 3.875,1.875 1.22841,0.82895 2.37734,1.85289 3.46875,3.03125 0.0904,0.0976 0.1607,0.24395 0.25,0.34375 5.30492,-5.92695 8.8125,-15.72038 8.8125,-26.90625 l 0,-32.15625 c 0,-14.6917 -5.9705,-27.0578 -14.25,-31.28125 l -72.375,-49.84375 z"
           style="fill:#000000;fill-opacity:1;stroke:none" />
        <path
           sodipodi:nodetypes="ccccccccccccccc"
           style="fill:#000000;fill-opacity:1;stroke:none"
           d="m 369.95233,614.14476 c -5.41807,6.05337 -8.96305,16.05806 -8.96305,27.48252 l 0,32.85411 c 0,18.58703 9.34393,33.54117 20.95543,33.54117 l 135.00789,0 c 11.6115,0 20.95543,-14.95414 20.95543,-33.54117 l 0,-32.85411 c 0,-11.42446 -3.57621,-21.42915 -8.99428,-27.48252 -0.0913,0.10196 -0.15752,0.24386 -0.24985,0.34353 l -68.30031,49.71838 55.7458,43.31621 -134.38329,0 56.24548,-43.75343 -67.7694,-49.28116 c -0.0924,-0.0996 -0.15859,-0.24157 -0.24985,-0.34353 z"
           id="path2948" />
        <path
           id="path2950"
           d="m 381.7092,707.52908 67.21875,-52.28125 67.25,52.28125 -134.46875,0 z"
           style="opacity:0.20071686;fill:#000000;fill-opacity:1;stroke:none;filter:url(#filter3668)" />
        <path
           id="path2952"
           d="m 378.05862,707.77008 70.86848,-52.28125 70.90143,52.28125 -141.76991,0 z"
           style="fill:#000000;fill-opacity:1;stroke:none" />
      </g>
      <path
         id="path2839"
         d="m 461.55933,557.5802 -72.46875,49.90625 c -1.18414,0.61731 -2.32893,1.3783 -3.40625,2.3125 l -0.0625,0.0625 c -6.36098,5.56419 -10.65625,16.37483 -10.65625,28.84375 l 0,32.15625 c 0,11.18587 3.47633,20.9793 8.78125,26.90625 0.0893,-0.0998 0.12835,-0.24615 0.21875,-0.34375 1.09141,-1.17836 2.27159,-2.2023 3.5,-3.03125 1.22841,-0.82895 2.53668,-1.43884 3.875,-1.875 1.33831,-0.43616 2.70388,-0.6875 4.125,-0.6875 l 66.09375,-9.375 66.09375,9.375 c 1.42112,0 2.78669,0.25134 4.125,0.6875 1.33832,0.43616 2.64659,1.04605 3.875,1.875 1.22841,0.82895 2.37734,1.85289 3.46875,3.03125 0.0904,0.0976 0.1607,0.24395 0.25,0.34375 5.30492,-5.92695 8.8125,-15.72038 8.8125,-26.90625 l 0,-32.15625 c 0,-14.6917 -5.9705,-27.0578 -14.25,-31.28125 l -72.375,-49.84375 z"
         style="fill:url(#linearGradient3770);fill-opacity:1;stroke:none" />
      <path
         id="path3742"
         d="m 382.07416,614.14476 c -5.41807,6.05337 -8.96305,16.05806 -8.96305,27.48252 l 0,32.85411 c 0,18.58703 9.34393,33.54117 20.95543,33.54117 l 135.00789,0 c 11.6115,0 20.95543,-14.95414 20.95543,-33.54117 l 0,-32.85411 c 0,-11.42446 -3.57621,-21.42915 -8.99428,-27.48252 -0.0913,0.10196 -0.15752,0.24386 -0.24985,0.34353 l -68.30031,49.71838 55.7458,43.31621 -134.38329,0 56.24548,-43.75343 -67.7694,-49.28116 c -0.0924,-0.0996 -0.15859,-0.24157 -0.24985,-0.34353 z"
         style="opacity:0.40860213;fill:#000000;fill-opacity:1;stroke:none;filter:url(#filter3748)"
         sodipodi:nodetypes="ccccccccccccccc" />
      <path
         clip-path="url(#clipPath3803)"
         sodipodi:nodetypes="cccccc"
         id="path3762"
         transform="translate(12.12183,308.2677)"
         d="m 448.6875,257.09375 -79.58929,53.82589 79.58929,-53.82589 z m 1.53125,0 79.73661,53.82589 -79.73661,-53.82589 z"
         style="opacity:0.18996414;fill:none;stroke:#ffffff;stroke-width:10;stroke-linecap:square;stroke-linejoin:miter;stroke-opacity:1" />
      <path
         sodipodi:nodetypes="ccccccccccccc"
         id="path3695"
         d="m 382.07863,613.39432 c -5.41807,6.05337 -8.96305,16.05806 -8.96305,27.48252 l 0,32.85411 c 0,18.58703 9.34393,33.54117 20.95543,33.54117 l 135.00789,0 c 11.6115,0 20.95543,-14.95414 20.95543,-33.54117 l 0,-32.85411 c 0,-11.42446 -3.57621,-21.42915 -8.99428,-27.48252 -0.0913,0.10196 -0.15752,0.24386 -0.24985,0.34353 l -68.30031,49.71838 -22.39201,-0.43722 -67.7694,-49.28116 c -0.0924,-0.0996 -0.15859,-0.24157 -0.24985,-0.34353 z"
         style="fill:url(#radialGradient2883);fill-opacity:1;stroke:none" />
      <path
         style="opacity:0.33333333;fill:#000000;fill-opacity:1;stroke:none;filter:url(#filter3754)"
         d="m 390.69,707.77008 70.86848,-52.28125 70.90143,52.28125 -141.76991,0 z"
         id="path3752" />
      <path
         id="path2927"
         d="m 393.90166,707.27212 67.65757,-52.28125 67.68902,52.28125 -135.34659,0 z"
         style="fill:url(#linearGradient3005);fill-opacity:1;stroke:none" />
    </g>
  </g>
</svg>
