<?xml version="1.0" encoding="UTF-8" standalone="no"?>
<!-- Created with Inkscape (http://www.inkscape.org/) -->

<svg
   xmlns:dc="http://purl.org/dc/elements/1.1/"
   xmlns:cc="http://creativecommons.org/ns#"
   xmlns:rdf="http://www.w3.org/1999/02/22-rdf-syntax-ns#"
   xmlns:svg="http://www.w3.org/2000/svg"
   xmlns="http://www.w3.org/2000/svg"
   xmlns:xlink="http://www.w3.org/1999/xlink"
   xmlns:sodipodi="http://sodipodi.sourceforge.net/DTD/sodipodi-0.dtd"
   xmlns:inkscape="http://www.inkscape.org/namespaces/inkscape"
   width="256"
   height="256"
   id="svg2"
   version="1.1"
   inkscape:version="0.48.5 r10040"
   sodipodi:docname="hyperlink.svg"
   inkscape:export-filename="D:\Pictures\Graphics\hyperlink.png"
   inkscape:export-xdpi="180"
   inkscape:export-ydpi="180">
  <defs
     id="defs4">
    <linearGradient
       id="linearGradient3789">
      <stop
         style="stop-color:#ffffff;stop-opacity:0.74444443;"
         offset="0"
         id="stop3791" />
      <stop
         style="stop-color:#ffffff;stop-opacity:1;"
         offset="1"
         id="stop3793" />
    </linearGradient>
    <linearGradient
       id="linearGradient5439">
      <stop
         style="stop-color:#000000;stop-opacity:1;"
         offset="0"
         id="stop5441" />
      <stop
         style="stop-color:#000000;stop-opacity:0;"
         offset="1"
         id="stop5443" />
    </linearGradient>
    <linearGradient
       inkscape:collect="always"
       id="linearGradient4992">
      <stop
         style="stop-color:#ffffff;stop-opacity:1;"
         offset="0"
         id="stop4994" />
      <stop
         style="stop-color:#ffffff;stop-opacity:0;"
         offset="1"
         id="stop4996" />
    </linearGradient>
    <linearGradient
       inkscape:collect="always"
       id="linearGradient4554">
      <stop
         style="stop-color:#ffffff;stop-opacity:1;"
         offset="0"
         id="stop4556" />
      <stop
         style="stop-color:#ffffff;stop-opacity:0;"
         offset="1"
         id="stop4558" />
    </linearGradient>
    <linearGradient
       id="linearGradient4465">
      <stop
         style="stop-color:#00b6ff;stop-opacity:1;"
         offset="0"
         id="stop4467" />
      <stop
         style="stop-color:#1e55ff;stop-opacity:0.34078214;"
         offset="1"
         id="stop4469" />
    </linearGradient>
    <pattern
       inkscape:collect="always"
       xlink:href="#pattern2966"
       id="pattern4461"
       patternTransform="matrix(0.47055548,0.06434433,-0.06434433,0.47055548,511.98622,180.74137)" />
    <inkscape:perspective
       sodipodi:type="inkscape:persp3d"
       inkscape:vp_x="0 : 526.18109 : 1"
       inkscape:vp_y="0 : 1000 : 0"
       inkscape:vp_z="744.09448 : 526.18109 : 1"
       inkscape:persp3d-origin="372.04724 : 350.78739 : 1"
       id="perspective10" />
    <inkscape:perspective
       id="perspective2826"
       inkscape:persp3d-origin="0.5 : 0.33333333 : 1"
       inkscape:vp_z="1 : 0.5 : 1"
       inkscape:vp_y="0 : 1000 : 0"
       inkscape:vp_x="0 : 0.5 : 1"
       sodipodi:type="inkscape:persp3d" />
    <pattern
       patternUnits="userSpaceOnUse"
       width="793.4375"
       height="601.88186"
       patternTransform="translate(532,326.10459)"
       id="pattern2966">
      <path
         id="path2836"
         d="m 400.59375,0.00686266 c -0.22658,-0.010183 -0.50991,-0.015302 -0.8125,0.03125 -2.42071,0.372418 -9.6875,1.31250004 -9.6875,1.31250004 0,0 -5.38146,2.03125 -6.3125,2.03125 -0.93105,0 -11.1875,-0.375 -11.1875,-0.375 l -6.5,0.9375 -5.96875,-0.375 c 0,0 -4.47908,1.126291 -5.96875,1.3125 -1.48967,0.186209 -5.19267,0.375 -5.9375,0.375 -0.74484,0 -6.71875,0.1875 -6.71875,0.1875 l 2.625,1.875 8.1875,0 7.625,0.53125 2.96875,-0.1875 -2.59375,3.1875003 -11.71875,0.375 -2.625,-1.5000003 -5.9375,-0.1875 0.15625,2.7812503 1.125,3.1875 -4.46875,0.1875 -2.03125,-1.6875 -2.0625,2.0625 3.90625,1.09375 -3.34375,1.875 -11.1875,-0.75 -0.90625,2.625 6.125,1.65625 7.84375,-1.125 5,1.875 3,1.5 10.4375,-6.90625 4.09375,0 5,-3.71875 6.71875,-0.9375 9.5,-2.40625 8.75,-3.1875003 8.1875,-2.40625 6.15625,-3.90625 c 0,0 0.14855,-1.27246704 -1.4375,-1.34375004 z m 90.81245,1.53125004 -70.74995,4.46875 -17.15625,0.75 -19.34375,8.1875003 -9.6875,0.75 -2.25,7.4375 20.125,-1.5 8.1875,8.9375 2.25,4.46875 3.71875,8.9375 -3,6.71875 -9.65625,5.21875 3.71875,15.625 -1.5,10.4375 19.375,0.75 10.40625,-17.125 18.625,-3 8.9375,-8.1875 16.40625,-2.21875 17.125,-2.25 2.2187,-2.96875 -3.7187,-0.75 -5.9375,0 2.2188,-5.96875 5.9687,0 10.4063,7.46875 c 0,0 2.2606,-5.223914 -0.7188,-5.96875 -2.9793,-0.744835 -9.6875,-7.4375 -9.6875,-7.4375 l 7.4375,-3.75 11.1875,-3.71875 2.2187,-5.9375 0,-4.46875 3.7188,-4.46875 14.1562,-2.2500003 3.7188,-4.46875 -17.875,0.75 -2.9688,-2.25 -17.875,-2.21875 z m -163.31245,5.03125 -8,2.59375 -4.65625,3.1562503 7.8125,1.5 c 0,0 3.53254,0.744836 3.71875,0 0.18621,-0.744836 5.21875,-5.0312503 5.21875,-5.0312503 l -4.09375,-2.21875 z m 291.06245,3.9062503 0.5313,1.65625 -4.0937,0.5625 -0.1876,3.75 -0.7187,-2.4375 -2.0625,-1.875 -1.5,1.6875 -3.1562,0.375 -4.0938,-0.5625 -10.0625,-0.5625 -2.9687,1.875 3.3437,3.53125 6.9063,1.125 2.9687,-1.3125 1.6875,0.375 2.2188,1.3125 -6.1563,0.5625 -2.2187,2.59375 5.4062,2.96875 4.4688,0.9375 4.2812,-3.53125 2.4062,-4.09375 2.4376,-1.5 2.5937,3.15625 0.1875,2.8125 3.7188,-1.5 3,1.6875 1.0937,-1.875 -1.0937,-2.78125 -3.375,-0.1875 -4.0938,-1.6875 -0.375,-2.21875 5.0312,0.9375 9.125,-0.1875 0.9376,-3 -13.7813,-0.5625 -2.4063,-2.03125 z m -309.12495,11.15625 -4.84375,2.4375 -1.28125,3.53125 6.3125,1.125 4.65625,-0.1875 5.03125,0.5625 7.4375,-0.1875 1.875,1.28125 7.25,-2.21875 2.0625,-2.96875 -10.4375,-0.375 -5.96875,0.75 -6.125,-0.75 -5.96875,-3 z m -93.65625,6.90625 -10.8125,3.53125 -8.9375,4.28125 -2.78125,3.34375 5.03125,3.375 12.65625,-5.40625 4.09375,2.59375 -4.65625,1.875 c 0,0 1.32025,0.9375 2.4375,0.9375 1.11725,0 8.9375,-0.1875 8.9375,-0.1875 l -0.75,2.59375 -11.5625,0 1.5,3.34375 9.3125,2.625 7.4375,0.375 6.34375,-3.1875 6.34375,0.375 6.875,1.3125 8.1875,-3.71875 -3.34375,-3.34375 -1.5,-2.625 3.71875,-6.125 -3.53125,-1.3125 -3.53125,4.84375 -3.53125,1.28125 0,-4.09375 -0.75,-2.21875 -4.46875,3.53125 -7.4375,-1.6875 -8.40625,-5.5625 -6.875,-0.75 z m 79.5,1.65625 -7.25,0.9375 -1.5,1.125 -3.15625,2.96875 1.5,1.6875 3.34375,-0.75 4.84375,-0.1875 2.96875,-1.125 1.3125,-2.59375 -2.0625,-2.0625 z m -14.3125,0.3125 c -0.0993,-0.0051 -0.21207,0.01595 -0.375,0.0625 -1.30346,0.372418 -8.9375,2.25 -8.9375,2.25 l -2.25,3.15625 -4.65625,-1.125 -1.125,0.5625 5.21875,3.375 4.46875,0.71875 2.625,-2.59375 5.1875,-2.59375 -0.1875,-2.625 c 0,0 0.72626,-1.151858 0.0312,-1.1875 z m 32.25,1 c 0,0 -3.78319,0.04719 -4.0625,0.09375 -0.27931,0.04655 -8.84375,5.3125 -8.84375,5.3125 l -4.09375,3.53125 2.0625,3 4.28125,1.28125 5.75,-0.375 5.03125,0.75 2.8125,0.1875 4.09375,0.9375 2.96875,-1.6875 3.90625,-0.375 5.96875,5.03125 1.5,3.53125 5.375,4.84375 -2.40625,2.25 -4.09375,-0.5625 -2.25,-0.9375 -6.125,4.65625 -3.375,0.9375 -6.875,-0.5625 c -1.11725,0 -5.59375,2.4375 -5.59375,2.4375 l 0.9375,1.84375 9.5,-0.375 3.15625,-0.5625 2.625,4.09375 c 0,0 4.09633,2.255164 4.46875,3 0.37242,0.744835 3.53125,2.78125 3.53125,2.78125 l 5.96875,1.6875 2.21875,-2.25 -5.78125,-4.65625 c 0,0 2.25774,-1.28125 3.375,-1.28125 1.11725,0 6.125,2.03125 6.125,2.03125 l 2.4375,-1.3125 -1.6875,-8.375 c 0,0 0.57024,-0.907541 1.6875,-1.09375 1.11725,-0.186209 5.375,1.65625 5.375,1.65625 0,0 2.25775,0.938791 3.375,1.125 1.11726,0.186209 6.3125,-4.65625 6.3125,-4.65625 l -3.71875,-3.53125 -5.40625,-3.53125 0.1875,-3.75 -0.5625,-3.34375 c 0,0 -5.19912,-2.407541 -6.875,-2.59375 -1.67588,-0.186209 -2.79158,-0.009 -4.28125,-1.3125 -1.48967,-1.303463 -1.87887,-2.973915 -2.4375,-3.71875 -0.55862,-0.744836 -0.91787,-2.433627 -2.59375,-1.875 -1.67588,0.558626 -3.914,2.4375 -5.03125,2.4375 -1.11726,0 -2.22908,-0.0065 -3.71875,-0.9375 -1.48967,-0.931045 -2.22392,-2.036414 -2.96875,-2.78125 -0.74484,-0.744835 -0.0155,-2.252583 -2.25,-2.625 -2.23451,-0.372418 -8.1875,2.78125 -8.1875,2.78125 0,0 -0.94267,1.691373 -1.6875,2.25 -0.74484,0.558627 -3.15625,2.0625 -3.15625,2.0625 l -0.75,-1.59375 3.0625,-2.8125 1.1875,-1.8125 -0.46875,-1.25 z m -31.71875,8.9375 -9.125,5.03125 3.75,3.90625 -5.40625,3.1875 -10.25,3.90625 -5.96875,-3.75 -3.34375,1.875 -6.5,-1.875 -13.59375,0.375 -7.84375,5.59375 -3.34375,-5.21875 -2.59375,1.125 -11,0.375 3.15625,-4.09375 -5.1875,-0.1875 -11.1875,-3.53125 -11,0 -6.3125,-1.6875 c 0,0 -11.54158,0.755164 -13.03125,1.5 -1.48968,0.744835 -15.09375,2.40625 -15.09375,2.40625 l -14.15625,-3.15625 -26.8125,-3.90625 -23.84375,1.46875 -12.09375,2.25 -6.875,3.15625 -11.75,0.5625 -0.5625,3.90625 3.5625,4.09375 -5.59375,1.875 -13.03125,0.5625 -5.21875,5.03125 5.03125,2.21875 6.3125,-2.03125 2.625,1.65625 -6.34375,3.90625 L 19,75.256863 l 0.5625,5.78125 -5.96875,5.40625 1.875,4.28125 3.34375,-0.5625 5.78125,-0.75 -1.3125,3.375 L 0,103.94436 l 8.9375,-1.3125 19.9375,-9.843747 6.875,-0.5625 c 0,0 6.88792,-4.664 8.75,-5.78125 1.86209,-1.11725 6.53125,-0.5625 6.53125,-0.5625 l 4.46875,0.5625 6.3125,-1.5 4.09375,-2.40625 6.53125,0.375 6.5,2.03125 7.28125,-0.1875 6.3125,6.15625 5.40625,0.5625 2.0625,5.21875 0.5625,4.656247 3.53125,5.21875 -3.34375,1.09375 -3,3.375 1.125,4.46875 -1.5,3.34375 1.875,2.21875 2.21875,3 5.59375,9.65625 -0.75,2.625 -3.71875,2.21875 -3.71875,-1.09375 -2.21875,0.375 -3.75,7.8125 -5.1875,7.0625 -4.125,5.59375 -8.5625,11.1875 -0.75,7.8125 2.25,5.59375 0.375,7.4375 2.59375,7.0625 7.09375,5.21875 -3,6.34375 5.59375,14.53125 0,6.6875 6.34375,4.84375 -1.875,4.46875 6.71875,10.0625 2.96875,-1.875 -2.59375,-7.4375 -1.125,-8.9375 -5.96875,-6.34375 -2.59375,-8.9375 2.96875,-5.21875 4.09375,1.125 1.875,6.34375 4.46875,13.03125 8.9375,10.0625 2.96875,11.90625 c 0,0 1.85408,15.28125 3.34375,15.28125 1.48967,0 29.8125,14.875 29.8125,14.875 l 11.90625,-1.84375 13.03125,11.15625 11.5625,3.71875 4.46875,9.6875 19.34375,17.125 5.21875,-8.1875 8.59375,4.5625 -1.875,1.40625 0.75,12.65625 -11.9375,28.3125 0,8.9375 -1.46875,13.40625 c 0,0 10.42174,7.4424 12.65625,12.65625 2.23451,5.21385 11.90625,20.84375 11.90625,20.84375 l 18.625,9.6875 11.90625,10.4375 0,17.125 -1.46875,26.0625 2.21875,16.40625 c 0,0 3.73967,8.92691 2.25,11.90625 -1.48967,2.97934 -2.25,13.40625 -2.25,13.40625 l 3,11.90625 3.71875,8.96875 8.1875,11.15625 -2.25,8.9375 8.21875,11.1875 4.46875,11.15625 11.15625,3.71875 5.96875,11.9375 18.625,-2.25 c -8.1932,-1.48967 -20.125,-11.90625 -20.125,-11.90625 l 2.96875,-11.1875 -1.46875,-11.90625 -3,-7.4375 4.46875,-8.9375 -5.1875,-10.4375 8.9375,0 4.46875,-5.96875 11.15625,-1.5 2.96875,-8.9375 -5.9375,-8.9375 9.6875,-3.71875 14.125,-9.6875 2.25,-22.34375 5.21875,-8.1875 16.375,-11.15625 13.40625,-9.6875 3,-23.84375 0,-9.6875 11.15625,-14.875 6.71875,-14.90625 -3.75,-9.6875 -14.875,-5.21875 -6.71875,-5.21875 -12.65625,0.75 -7.4375,1.5 0,-6.71875 -9.6875,-1.46875 -5.96875,0.71875 -6.6875,4.5 6.6875,-9.6875 -5.96875,0 -6.6875,6.6875 9.6875,-11.90625 -10.4375,-17.875 -11.90625,-7.46875 -12.65625,0 -7.46875,-8.1875 -6.6875,-3.71875 2.21875,-5.96875 -11.90625,0 -16.375,-2.21875 -8.96875,-2.96875 -4.46875,8.1875 c 0,0 -3.72391,4.4481 -4.46875,1.46875 -0.74483,-2.97934 2.25,-11.15625 2.25,-11.15625 l -17.125,6.6875 -4.46875,8.9375 -1.15625,0.875 -7,-5.21875 -7.3125,2.125 -8.1875,-0.375 -5.03125,-7.0625 1.3125,-9.125 0,-14.53125 -17.3125,0.75 c 0,0 -1.30733,-2.81508 -0.5625,-3.1875 0.74484,-0.37242 3.53125,-9.3125 3.53125,-9.3125 l 4.65625,-13.03125 -9.6875,-1.28125 -5.78125,6.875 -5.75,6.34375 -13.96875,0.5625 -5.96875,-13.78125 0.1875,-7.84375 3.15625,-11.15625 4.84375,-10.8125 3.375,-2.21875 13.59375,-5.78125 5.75,2.78125 9.125,1.125 0.5625,-3.71875 6.53125,-3.15625 10.40625,2.40625 6.34375,4.46875 2.96875,17.125 4.46875,1.6875 2.8125,-6.71875 -2.0625,-19.71875 9.3125,-8.5625 19.375,-11.1875 0.375,-12.09375 0.75,-2.96875 2.96875,3.15625 -0.1875,-3.71875 8.9375,-4.46875 1.6875,-3.375 4.65625,-2.21875 11.15625,-3.71875 0.9375,-2.0625 2.40625,-5.40625 24.96875,-9.65625 1.84375,1.46875 -5.9375,2.625 -5.21875,4.84375 5.96875,-0.9375 19.34375,-8.9375 -2.96875,-0.375 -5.96875,0.75 -5.59375,-4.65625 2.25,-3.75 2.59375,-5.9375 -1.46875,-1.125 -3.71875,0.1875 -15.09375,6.34375 1.3125,-3.9375 18.40625,-7.25 15.46875,0.5625 9.6875,-2.96875 13.21875,-5.40625 1.125,-5.96875 -3.53125,-3.15625 -7.65625,2.03125 -1.65625,-2.03125 3.34375,-4.84375 -3.90625,-4.28125 0.75,-2.624997 -0.5625,-4.8125 -1.875,-8.59375 -15.625,9.5 -2.0625,-4.09375 0.9375,-8.5625 -16.03125,-5.40625 -8.1875,3 -3.90625,8.375 -3.90625,5.40625 1.3125,4.46875 -6.15625,7.062497 -11.53125,5.78125 -2.25,9.3125 -7.25,2.96875 -2.625,-4.65625 1.3125,-11.71875 -8.1875,-2.625 -15.65625,-6.312497 -4.09375,-4.84375 0.375,-4.28125 24.40625,-14.34375 1.46875,-3.90625 16.40625,-2.0625 -3.375,-3.15625 0.375,-3.71875 6.53125,2.40625 4.09375,-2.21875 17.5,-2.4375 5.96875,-10.0625 -8,-0.71875 -2.8125,1.65625 -5.59375,4.84375 -6.6875,1.5 0.9375,-3.15625 0,-3.375 -3.1875,0.5625 -3.34375,-2.78125 1.3125,-5.96875 -2.4375,-0.375 z m 349.34375,1.3125 -18.25,7.0625 -10.0625,5.59375 -8.5625,12.28125 -12.6563,7.09375 -6.3437,3.34375 -1.0937,9.6875 3.3437,5.59375 12.2813,-2.25 3.7187,0.75 4.0937,9.687497 7.4688,3.34375 7.8125,-8.187497 5.9687,-5.59375 -4.125,-8.5625 -0.7187,-6.6875 15.625,-13.40625 c 0,0 6.3336,5.192664 4.8437,5.9375 -1.4896,0.744835 -10.8021,8.190082 -9.3124,8.5625 1.4896,0.372418 8.1874,10.4375 8.1874,10.4375 l 11.1876,-3.71875 7.8124,2.21875 -10.0624,3 -10.0313,0.71875 5.5625,5.96875 -2.9688,4.09375 -5.2187,-3.34375 -1.4687,5.593747 -1.5,5.9375 -6.3438,2.25 -5.9375,-0.75 -5.9687,1.875 -5.5938,0 -4.4688,-1.125 -4.8437,0.375 -1.125,-4.09375 4.125,0 -2.25,-4.09375 -4.4687,-1.125 c 0,0 2.6146,-5.218747 1.125,-5.218747 -1.4899,0 -6.7188,4.84375 -6.7188,4.84375 l 0.375,5.593747 1.125,3.71875 -1.875,3.34375 -7.0625,-0.375 -6.3437,5.21875 -7.8126,7.4375 -8.5624,7.09375 c 0,0 -11.1641,0.35408 -12.2813,1.84375 -1.1173,1.48967 -7.4687,0.75 -7.4687,0.75 l 7.75,3.875 3.4374,1.34375 0.0626,0.40625 0.6874,0.34375 -0.6874,-0.3125 1.4374,8.875 -0.75,7.4375 -9.6874,0.75 -11.5626,-1.09375 -5.9374,0.34375 -3,6.34375 -0.375,8.1875 -0.7188,10.0625 2.2188,5.21875 6.3437,-1.125 3.7187,2.625 5.2188,0.71875 9.3125,-2.96875 4.0937,0 2.5938,-5.96875 1.875,-5.5625 5.9375,-3.75 7.4687,-4.46875 2.2188,-5.1875 c 0,0 1.8853,-3 3.375,-3 1.4896,0 15.25,-2.59375 15.25,-2.59375 l 3,-1.875 7.8125,9.6875 5.9375,3.34375 7.8438,5.96875 3.7187,4.84375 -0.75,4.84375 -10.4375,0 -2.5938,1.125 7.0626,4.46875 3.75,-0.375 3.7187,-5.21875 2.9687,-3 0,-4.46875 1.875,-2.59375 4.4688,0.75 -10.0625,-6.34375 -11.9063,-7.8125 -5.2187,-5.59375 3.3437,-5.21875 7.8126,4.84375 3.3437,4.84375 7.8437,1.125 c 0,0 5.9376,2.60408 5.9376,4.09375 0,1.48967 1.875,8.1875 1.875,8.1875 l 1.5,5.21875 4.8437,2.96875 5.5625,0.375 -4.8438,1.875 1.875,5.59375 4.4688,1.125 3.7188,-5.59375 -2.5938,-8.5625 4.4688,-2.625 6.3124,-1.125 7.0938,-0.71875 3.7188,-1.125 -1.875,-4.09375 -0.3438,-8.1875 7.4375,-9.6875 4.0937,-3 3.7188,5.96875 4.4688,4.46875 5.9687,-2.59375 1.4687,-2.625 -5.1874,-2.59375 10.0312,-4.46875 4.0938,0 -2.2188,7.4375 0.375,5.21875 14.5312,1.875 0,5.9375 0.375,7.09375 -9.6874,-1.125 -11.9376,-1.125 -10.0312,-2.59375 -7.8438,1.84375 -2.9687,0 -4.0937,3 -4.4688,2.96875 -4.0938,0 -1.125,5.21875 4.4688,6.3125 4.0938,4.125 13.4062,-0.75 c 0,0 3.7188,-0.36467 3.7188,1.125 0,1.48968 1.1351,2.96875 2.625,2.96875 1.4896,0 8.1874,-2.25 8.1874,-2.25 l 4.375,0 -2.5,4.46875 -1.5,15.65625 -5.2187,3.71875 -1.1563,2.78125 c 0.0223,-0.24763 0.0313,-0.50717 0.0313,-0.78125 0,-6.32014 -1.0366,-1.05868 -5.25,-4.21875 -2.9342,2.65871 -34.1631,1.44185 -36.875,-5.25 -17.9071,0 -9.9687,0.6875 -9.9687,0.6875 l -1.125,7.125 -6.75,1.78125 c -3.3276,-0.0523 -7.1065,-0.16587 -9.7813,-1.96875 -3.5822,-2.41451 -6.0664,-6.6555 -11.3437,-6.5625 0,0 -8.8841,-5.90776 -9.9376,-13.28125 -1.0534,-7.3735 3.6197,-6.73704 -0.5937,-8.84375 -4.2134,-2.10671 -5.2827,-0.0221 -12.6563,1.03125 -7.3733,1.05335 -7.3491,1.48967 -11.5624,0 -5.0918,1.43677 -15.7473,7.86384 -24.75,10.03125 -5.2259,1.25812 -9.8945,0.091 -12.625,-1.71875 -5.267,2.10672 -8.9833,4.33993 -14.25,7.5 -5.8756,5.32036 -4.5372,12.65938 -4.25,17.84375 -6.3204,4.21342 -11.3621,4.23321 -13.4688,9.5 -15.2928,14.23629 -8.742,13.39451 -19.1562,30.59375 l 0,11.59375 c 0,7.3735 2.125,10.53125 2.125,10.53125 l 0,7.375 c 0,0 -0.013,3.13947 2.0937,8.40625 2.1067,5.26678 4.2187,8.4375 4.2187,8.4375 0,0 4.215,5.27361 7.375,11.59375 3.1603,6.32013 1.0496,7.38032 3.1563,11.59375 2.1067,4.21342 6.3125,8.40625 6.3125,8.40625 0,0 7.3856,-1.03125 15.8125,-1.03125 8.4268,0 3.1393,-1.08078 8.4063,-3.1875 5.2667,-2.10671 9.5028,-4.20578 24.25,-6.3125 10.4149,-1.48786 12.3748,-1.90286 12.6562,-2.03125 0.0875,0.094 1.2767,1.41961 7.3438,11.53125 6.3199,10.53357 -1.0405,5.24236 -2.0938,11.5625 -1.0534,6.32014 3.1411,6.34526 15.7812,13.71875 12.6404,7.3735 3.1837,4.189 6.3438,11.5625 3.16,7.37349 3.1395,6.31551 8.4062,21.0625 5.267,14.74699 -4.53,12.73308 -4.9062,23.3125 -0.4272,12.01408 1.5767,15.20352 7.4688,27.21875 4.564,10.68382 0.6073,27.2209 8.6874,37.1875 11.367,14.02052 4.6783,23.61295 17.6876,30.15625 7.6819,-4.90532 12.9039,-5.53032 23.4374,-0.625 10.7593,-3.98353 18.7162,-20.46054 27.0313,-30.125 4.9905,-11.3175 -4.9198,-0.13756 14.5313,-19.4375 -9.0751,-17.08575 -0.1067,-20.3817 5.0937,-26.1875 4.6086,-5.14523 13.115,-6.37147 17.7813,-13.25 4.9299,-8.29349 -5.0096,-19.35677 -4.0938,-28.59375 -5.7081,-6.43724 -4.8925,-14.85215 1.3438,-24.625 0,-6.32014 6.2058,-7.47408 8.3124,-11.6875 5.2633,-5.74509 8.3662,-5.94067 20.1876,-17.0625 7.6291,-8.39967 8.9708,-10.58987 12.2187,-23.59375 3.1601,-8.42685 1.246,-4.53275 4.4063,-11.90625 2.4827,-9.48228 -5.9099,-2.82256 -11.7188,-3.46875 -6.1915,1.89096 -11.1615,11.62535 -18.9688,0 -5.2665,-1.05336 -5.125,-5.75 -5.125,-5.75 0,0 -4.3529,-2.67986 -5.4062,-9 -10.8149,-3.40626 -9.736,-12.68451 -14.7188,-16.84375 -4.2133,-4.21343 -4.2278,-5.26979 -5.2812,-14.75 -1.2577,-5.35059 -11.854,-21.14141 -14.75,-27.375 -4.3723,-4.37231 -3.9283,-5.79063 -2.8438,-7.53125 l 7.375,8.15625 -0.375,-5.59375 3.7188,9.3125 10.8125,12.65625 5.9687,9.6875 3.3438,8.5625 9.3125,9.6875 c 0,0 2.5937,10.414 2.5937,11.53125 0,1.11725 3.3438,11.1875 3.3438,11.1875 7.3758,5.32152 11.9532,-2.0764 17.5312,-4.84375 l 16,-4.46875 6.7188,-7.4375 8.5625,-2.625 8.5625,-9.6875 1.0938,-4.09375 6.7187,-4.84375 0.375,-5.59375 -11.1875,-5.5625 -4.0938,-4.09375 -0.75,-6.34375 c 0,0 -4.8254,7.8125 -6.6874,7.8125 -1.8623,0 -10.8126,0.375 -10.8126,0.375 l -0.375,-4.84375 -2.5937,-0.75 -2.5937,1.875 -3,-1.875 -4.0938,-8.9375 -2.5938,-5.9375 -1.125,-4.46875 -0.75,-4.46875 -7.0624,-7.84375 c 0,0 -0.3933,-2.578 -3,-4.8125 -2.6071,-2.23451 -2.9688,-7.09375 -2.9688,-7.09375 0,0 1.4871,-3.35666 -0.375,-5.21875 -1.8621,-1.86209 -2.9815,-2.97907 -4.8438,-4.46875 -0.157,-0.12571 -0.5401,-0.18832 -1.0312,-0.25 0.0407,-0.14257 -5e-4,-0.31379 -0.0938,-0.5 -0.7446,-1.48967 -4.8124,-16.375 -4.8124,-16.375 L 732,164.66311 l 4.0938,0.375 -4.4688,-10.4375 2.5938,-9.6875 c 0,0 -11.1666,-14.539 -12.6563,-15.65625 -1.4896,-1.11726 -7.8125,-22.6875 -7.8125,-22.6875 0,0 -1.1276,-17.510317 -1.5,-18.999997 -0.3724,-1.48967 -6.3438,-17.125 -6.3438,-17.125 l -15.25,-11.1875 -4.8437,2.59375 -4.4687,4.125 -4.8438,-1.875 1.5,2.96875 -1.875,4.09375 -10.8125,-7.4375 -3.7187,-3.71875 0,-3.71875 15.2812,4.84375 10.0625,-3.75 -1.125,-2.96875 -16.75,-4.46875 -7.8437,-0.75 -7.4376,-4.46875 -22.3437,-2.96875 z m -85.5937,98.374997 0,-0.0312 -3.5,-1.75 -5.125,-2 8.625,3.78125 z m -4.7188,-95.968747 -1.5,0.375 c -0.931,-0.186209 -4.8438,1.6875 -4.8438,1.6875 l 3.375,1.84375 2.7813,0 0.1875,-3.90625 z m -273.34375,1.875 c -0.93104,0 -7.09375,2.21875 -7.09375,2.21875 l 0.1875,3.1875 5.03125,-0.1875 3.53125,-2.625 -1.65625,-2.59375 z m 242.99995,13.59375 -10.4374,1.125 -12.6563,4.84375 0.75,2.96875 5.1875,5.21875 19.375,-8.1875 -2.2188,-5.96875 z m -223.6562,3.90625 c 0,0 -2.60279,4.288997 -3.90625,5.40625 -1.30346,1.117254 -0.5625,1.125 -0.5625,1.125 l 2.8125,1.46875 2.40625,-0.9375 4.84375,0.9375 4.84375,0.9375 1.5,-3.53125 -7.09375,-4.46875 -4.84375,-0.9375 z m 249.9062,10.4375 -0.5624,4.28125 2.4062,2.03125 2.8125,-0.90625 -0.1875,-5.03125 -4.4688,-0.375 z m 5.5,19.53125 c -4.5621,3.63107 -4.75,8.749997 -4.75,8.749997 l 1.375,3.75 4.4688,1.09375 0.5625,4.65625 -3.4375,2.0625 -2.3125,4.46875 c 0,0 2.2246,2.50064 3.0625,2.59375 0.838,0.0931 3.2397,1.59504 1.75,1.78125 -1.4897,0.18621 -7.625,2.5 -7.625,2.5 l 2.9688,2.53125 11.8437,-3 5.5937,-0.0625 0.7188,-3.09375 3.1875,-2.21875 c 0,0 0.7468,-3.62629 0.2813,-3.8125 -0.4656,-0.18621 -5.875,-0.46875 -5.875,-0.46875 l -6.7188,-11.09375 -4.375,-2.03125 4.375,-4.124997 -3.1562,-1.375 -1.9376,-2.90625 z m -13.125,11.937497 -9.3124,2.21875 c 0,0 -1.125,-0.3595 -1.125,1.875 l 0,5.96875 c 0,0 -1.1276,4.07283 -1.5,5.5625 -0.3724,1.48967 -1.8467,1.12758 2.25,1.5 4.0966,0.37242 5.5832,0.74225 8.5624,-0.375 2.9793,-1.11725 5.9376,-5.59375 5.9376,-5.59375 0,0 -0.7163,0.39076 -0.3438,-1.84375 0.3724,-2.2345 1.0988,-1.85925 1.8438,-4.09375 0.7447,-2.23451 0.75,-4.84375 0.75,-4.84375 l -7.0626,-0.375 z m -179.5312,17.5 -8.1875,10.0625 -3.71875,2.59375 -2.96875,2.96875 8.1875,0.75 1.125,2.625 0.71875,2.21875 4.09375,-3.71875 6.71875,-1.875 4.09375,-2.59375 -2.96875,-4.46875 -4.46875,-1.125 -1.875,-4.46875 -0.75,-2.96875 z m 234.25,37.625 0.9375,3.34375 3.7187,2.03125 -0.5624,-5.375 -4.0938,0 z m 2.0625,7.0625 c -1.3035,0.18621 -4.0937,3.71875 -4.0937,3.71875 l 0.9374,4.46875 2.9688,1.3125 2.7812,-2.625 -1.4687,-6.875 -1.125,0 z m -23.0937,4.46875 -2.7813,2.0625 0.7187,2.21875 2.625,-0.75 2.9688,-3.34375 -3.5312,-0.1875 z m 43.9374,17.5 0.1876,0.9375 -2.4063,0.375 2.0313,2.59375 1.125,-1.84375 -0.9376,-2.0625 z m 33.9063,2.25 1.6563,2.78125 7.0937,1.875 4.6563,0.34375 -0.375,-3.34375 -2.625,-1.46875 -10.4063,-0.1875 z m 42.4375,0.375 -6.125,1.28125 1.2812,2.8125 4.4688,-1.3125 1.3125,-1.3125 -0.9375,-1.46875 z M 232,229.81936 l -2.03125,1.5 -0.375,1.65625 1.5,1.875 2.03125,-2.03125 3.53125,1.65625 -3.53125,1.125 -4.28125,2.03125 0.375,3 3.15625,3.71875 c 0,0 1.69008,-2.41142 2.0625,-3.15625 0.37241,-0.74484 -1.6875,-1.3125 -1.6875,-1.3125 0,0 0.19009,-1.84891 0.5625,-2.59375 0.37242,-0.74483 1.6875,0.34375 1.6875,0.34375 l 0.9375,-1.09375 3.15625,-1.5 -0.375,-2.96875 -1.875,-1.875 -4.84375,-0.375 z m 10.4375,10.625 -0.9375,3.53125 2.625,0.375 -0.1875,-3.71875 -1.5,-0.1875 z m 1.875,5.9375 -2.8125,0.5625 0.9375,1.875 2.625,-0.375 -0.75,-2.0625 z m -26.0625,1.125 -12.625,2.90625 -2.125,3.6875 2.625,-1.0625 10.5625,-1.3125 12.09375,5.53125 -1.0625,4.46875 18.1875,1.3125 -16.59375,-11.0625 -11.0625,-4.46875 z m 37.03125,1.875 -3.90625,0.375 -1.125,2.40625 3.1875,-0.375 2.03125,-0.1875 -0.1875,-2.21875 z m -7.625,2.59375 -2.0625,0.375 -1.65625,1.6875 -1.5,1.125 3.34375,0.1875 2.4375,-0.5625 -0.5625,-2.8125 z m 7.4375,10.625 -5.9375,1.6875 1.09375,3.71875 -9.125,-0.1875 -1.46875,1.46875 2.03125,2.25 5.59375,0.9375 0.5625,-0.9375 3.53125,-0.375 5.03125,0.9375 3.90625,-0.75 7.65625,-1.5 -1.6875,-2.59375 -5.40625,-3.90625 -5.78125,-0.75 z m -41.0625,0.1875 -2.875,3.6875 3.6875,-0.8125 -0.8125,-2.875 z m 63.21875,5.03125 -5.375,0.1875 -0.5625,2.40625 1.84375,2.25 3.375,-0.9375 1.84375,-2.625 -1.125,-1.28125 z m 6.34375,0 -2.96875,0.375 -0.375,1.84375 3.90625,0.375 -0.5625,-2.59375 z m 3.71875,0 -2.59375,2.21875 3.15625,0.75 -0.5625,-2.96875 z m -61.4375,0.75 0,4.75 7.125,-0.28125 2.625,-1.5625 -3.6875,-1.84375 c -1.05335,-0.26333 -6.0625,-1.0625 -6.0625,-1.0625 z m 55.3125,2.78125 -2.625,0.75 1.5,2.03125 1.125,-2.78125 z m 12.84375,0.75 -3.53125,0.375 1.46875,2.78125 3,-2.96875 -0.9375,-0.1875 z m 2.59375,0.5625 0.5625,2.96875 2.40625,-0.1875 -2.96875,-2.78125 z m -7.625,2.59375 -2.8125,0.5625 4.46875,2.21875 L 289,275.25686 z m 8.5625,2.96875 -2.96875,3.1875 2.78125,0.375 2.21875,-2.4375 -2.03125,-1.125 z m 1.3125,3.5625 -0.9375,3.90625 2.40625,-0.9375 -1.46875,-2.96875 z m 1.84375,4.09375 -2.59375,1.46875 2.40625,1.6875 1.6875,-0.9375 -1.5,-2.21875 z m -5.40625,3.71875 2.0625,3.90625 1.6875,-0.9375 -1.125,-2.78125 -2.625,-0.1875 z m 8.9375,2.78125 0,2.625 3.75,0.9375 -1.6875,-2.8125 -2.0625,-0.75 z m -8.1875,0.75 -0.1875,4.09375 2.25,-2.96875 -2.0625,-1.125 z m -36.875,1.3125 -1.28125,1.5 1.65625,2.40625 1.125,-2.40625 -1.5,-1.5 z m 5.03125,0.375 -1.28125,0.75 1.84375,3.53125 1.5,-2.0625 -2.0625,-2.21875 z m 30.1875,1.84375 -2.4375,2.25 2.8125,2.40625 -0.375,-4.65625 z m 459.18755,113.78125 -14.9063,15.65625 -8.1875,1.46875 -0.75,9.6875 -4.0938,14.90625 1.875,14.90625 c 3.2397,2.69521 7.4306,2.51329 12.6563,-0.75 l 8.9375,-16.40625 6.6875,-22.34375 -2.2187,-17.125 z"
         style="fill:#00ff00;stroke:none" />
    </pattern>
    <inkscape:perspective
       id="perspective10-6"
       inkscape:persp3d-origin="372.04724 : 350.78739 : 1"
       inkscape:vp_z="744.09448 : 526.18109 : 1"
       inkscape:vp_y="0 : 1000 : 0"
       inkscape:vp_x="0 : 526.18109 : 1"
       sodipodi:type="inkscape:persp3d" />
    <filter
       inkscape:collect="always"
       id="filter4725"
       color-interpolation-filters="sRGB">
      <feGaussianBlur
         inkscape:collect="always"
         stdDeviation="2.9072644"
         id="feGaussianBlur4727" />
    </filter>
    <linearGradient
       inkscape:collect="always"
       xlink:href="#linearGradient4992"
       id="linearGradient4998"
       x1="100.23509"
       y1="582.01093"
       x2="391.96152"
       y2="582.01093"
       gradientUnits="userSpaceOnUse" />
    <linearGradient
       inkscape:collect="always"
       xlink:href="#linearGradient4992"
       id="linearGradient5120"
       gradientUnits="userSpaceOnUse"
       x1="100.23509"
       y1="582.01093"
       x2="391.96152"
       y2="582.01093" />
    <linearGradient
       inkscape:collect="always"
       xlink:href="#linearGradient4992"
       id="linearGradient5128"
       gradientUnits="userSpaceOnUse"
       x1="100.23509"
       y1="582.01093"
       x2="391.96152"
       y2="582.01093" />
    <linearGradient
       inkscape:collect="always"
       xlink:href="#linearGradient4992"
       id="linearGradient5178"
       gradientUnits="userSpaceOnUse"
       x1="100.23509"
       y1="582.01093"
       x2="391.96152"
       y2="582.01093" />
    <radialGradient
       inkscape:collect="always"
       xlink:href="#linearGradient4465"
       id="radialGradient5256"
       gradientUnits="userSpaceOnUse"
       gradientTransform="matrix(1.5639784,0.98648239,-0.63075197,1.0000001,4.7975569,-322.12653)"
       cx="326.54056"
       cy="299.57797"
       fx="326.54056"
       fy="299.57797"
       r="145.36322" />
    <linearGradient
       inkscape:collect="always"
       xlink:href="#linearGradient4992"
       id="linearGradient5258"
       gradientUnits="userSpaceOnUse"
       x1="100.23509"
       y1="582.01093"
       x2="391.96152"
       y2="582.01093" />
    <linearGradient
       inkscape:collect="always"
       xlink:href="#linearGradient4992"
       id="linearGradient5260"
       gradientUnits="userSpaceOnUse"
       x1="100.23509"
       y1="582.01093"
       x2="391.96152"
       y2="582.01093" />
    <linearGradient
       inkscape:collect="always"
       xlink:href="#linearGradient4992"
       id="linearGradient5262"
       gradientUnits="userSpaceOnUse"
       x1="100.23509"
       y1="582.01093"
       x2="391.96152"
       y2="582.01093" />
    <radialGradient
       inkscape:collect="always"
       xlink:href="#linearGradient4465"
       id="radialGradient5264"
       gradientUnits="userSpaceOnUse"
       gradientTransform="matrix(1.5639784,0.98648239,-0.63075197,1.0000001,4.7975569,-322.12653)"
       cx="326.54056"
       cy="299.57797"
       fx="326.54056"
       fy="299.57797"
       r="145.36322" />
    <linearGradient
       inkscape:collect="always"
       xlink:href="#linearGradient4992"
       id="linearGradient5266"
       gradientUnits="userSpaceOnUse"
       x1="100.23509"
       y1="582.01093"
       x2="391.96152"
       y2="582.01093" />
    <linearGradient
       inkscape:collect="always"
       xlink:href="#linearGradient4992"
       id="linearGradient5268"
       gradientUnits="userSpaceOnUse"
       x1="100.23509"
       y1="582.01093"
       x2="391.96152"
       y2="582.01093" />
    <linearGradient
       inkscape:collect="always"
       xlink:href="#linearGradient4554"
       id="linearGradient5292"
       gradientUnits="userSpaceOnUse"
       gradientTransform="translate(7.7523437e-6,-51.151229)"
       x1="199.61595"
       y1="662.0683"
       x2="338.15536"
       y2="487.79895" />
    <linearGradient
       inkscape:collect="always"
       xlink:href="#linearGradient4992"
       id="linearGradient5294"
       gradientUnits="userSpaceOnUse"
       x1="100.23509"
       y1="582.01093"
       x2="391.96152"
       y2="582.01093" />
    <radialGradient
       inkscape:collect="always"
       xlink:href="#linearGradient5439"
       id="radialGradient5449"
       cx="321.82574"
       cy="688.72949"
       fx="321.82574"
       fy="688.72949"
       r="125.40625"
       gradientTransform="matrix(0.85887711,-0.51218172,0.41194176,0.6907848,-146.81036,296.22454)"
       gradientUnits="userSpaceOnUse" />
    <linearGradient
       inkscape:collect="always"
       xlink:href="#linearGradient4554"
       id="linearGradient2907"
       gradientUnits="userSpaceOnUse"
       gradientTransform="translate(72.656258,-31.619979)"
       x1="199.61595"
       y1="662.0683"
       x2="338.15536"
       y2="487.79895" />
    <linearGradient
       inkscape:collect="always"
       xlink:href="#linearGradient4992"
       id="linearGradient2909"
       gradientUnits="userSpaceOnUse"
       x1="100.23509"
       y1="582.01093"
       x2="391.96152"
       y2="582.01093"
       gradientTransform="translate(72.65625,19.53125)" />
    <filter
       inkscape:collect="always"
       id="filter3785"
       x="-0.029408099"
       width="1.0588162"
       y="-0.11022632"
       height="1.2204525"
       color-interpolation-filters="sRGB">
      <feGaussianBlur
         inkscape:collect="always"
         stdDeviation="6.9605645"
         id="feGaussianBlur3787" />
    </filter>
    <radialGradient
       inkscape:collect="always"
       xlink:href="#linearGradient3789"
       id="radialGradient3795"
       cx="160.15625"
       cy="1052.3622"
       fx="160.15625"
       fy="1052.3622"
       r="310.91693"
       gradientTransform="matrix(1,0,0,0.33624799,0,698.50751)"
       gradientUnits="userSpaceOnUse" />
    <radialGradient
       inkscape:collect="always"
       xlink:href="#linearGradient3789"
       id="radialGradient3847"
       gradientUnits="userSpaceOnUse"
       gradientTransform="matrix(1,0,0,0.33624799,0,698.50751)"
       cx="160.15625"
       cy="1052.3622"
       fx="160.15625"
       fy="1052.3622"
       r="310.91693" />
    <radialGradient
       inkscape:collect="always"
       xlink:href="#linearGradient3789"
       id="radialGradient3849"
       gradientUnits="userSpaceOnUse"
       gradientTransform="matrix(1,0,0,0.33624799,0,698.50751)"
       cx="160.15625"
       cy="1052.3622"
       fx="160.15625"
       fy="1052.3622"
       r="310.91693" />
    <radialGradient
       inkscape:collect="always"
       xlink:href="#linearGradient3789"
       id="radialGradient3851"
       gradientUnits="userSpaceOnUse"
       gradientTransform="matrix(1,0,0,0.33624799,0,698.50751)"
       cx="160.15625"
       cy="1052.3622"
       fx="160.15625"
       fy="1052.3622"
       r="310.91693" />
    <radialGradient
       inkscape:collect="always"
       xlink:href="#linearGradient3789"
       id="radialGradient3853"
       gradientUnits="userSpaceOnUse"
       gradientTransform="matrix(1,0,0,0.33624799,0,698.50751)"
       cx="160.15625"
       cy="1052.3622"
       fx="160.15625"
       fy="1052.3622"
       r="310.91693" />
    <radialGradient
       inkscape:collect="always"
       xlink:href="#linearGradient3789"
       id="radialGradient3855"
       gradientUnits="userSpaceOnUse"
       gradientTransform="matrix(1,0,0,0.33624799,0,698.50751)"
       cx="160.15625"
       cy="1052.3622"
       fx="160.15625"
       fy="1052.3622"
       r="310.91693" />
    <filter
       inkscape:collect="always"
       id="filter3865"
       color-interpolation-filters="sRGB">
      <feGaussianBlur
         inkscape:collect="always"
         stdDeviation="3.2800685"
         id="feGaussianBlur3867" />
    </filter>
    <radialGradient
       inkscape:collect="always"
       xlink:href="#linearGradient3789"
       id="radialGradient3893"
       gradientUnits="userSpaceOnUse"
       gradientTransform="matrix(1,0,0,0.33624799,0,698.50751)"
       cx="160.15625"
       cy="1052.3622"
       fx="160.15625"
       fy="1052.3622"
       r="310.91693" />
    <radialGradient
       inkscape:collect="always"
       xlink:href="#linearGradient3789"
       id="radialGradient3895"
       gradientUnits="userSpaceOnUse"
       gradientTransform="matrix(1,0,0,0.33624799,0,698.50751)"
       cx="160.15625"
       cy="1052.3622"
       fx="160.15625"
       fy="1052.3622"
       r="310.91693" />
    <radialGradient
       inkscape:collect="always"
       xlink:href="#linearGradient3789"
       id="radialGradient3897"
       gradientUnits="userSpaceOnUse"
       gradientTransform="matrix(1,0,0,0.33624799,0,698.50751)"
       cx="160.15625"
       cy="1052.3622"
       fx="160.15625"
       fy="1052.3622"
       r="310.91693" />
    <radialGradient
       inkscape:collect="always"
       xlink:href="#linearGradient3789"
       id="radialGradient3899"
       gradientUnits="userSpaceOnUse"
       gradientTransform="matrix(1,0,0,0.33624799,0,698.50751)"
       cx="160.15625"
       cy="1052.3622"
       fx="160.15625"
       fy="1052.3622"
       r="310.91693" />
    <radialGradient
       inkscape:collect="always"
       xlink:href="#linearGradient3789"
       id="radialGradient3901"
       gradientUnits="userSpaceOnUse"
       gradientTransform="matrix(1,0,0,0.33624799,0,698.50751)"
       cx="160.15625"
       cy="1052.3622"
       fx="160.15625"
       fy="1052.3622"
       r="310.91693" />
    <radialGradient
       inkscape:collect="always"
       xlink:href="#linearGradient4465"
       id="radialGradient3013"
       gradientUnits="userSpaceOnUse"
       gradientTransform="matrix(1.5639784,0.98648239,-0.63075197,1.0000001,4.7975569,-322.12653)"
       cx="326.54056"
       cy="299.57797"
       fx="326.54056"
       fy="299.57797"
       r="145.36322" />
    <linearGradient
       inkscape:collect="always"
       xlink:href="#linearGradient4992"
       id="linearGradient3015"
       gradientUnits="userSpaceOnUse"
       x1="100.23509"
       y1="582.01093"
       x2="391.96152"
       y2="582.01093" />
    <linearGradient
       inkscape:collect="always"
       xlink:href="#linearGradient4992"
       id="linearGradient3017"
       gradientUnits="userSpaceOnUse"
       x1="100.23509"
       y1="582.01093"
       x2="391.96152"
       y2="582.01093" />
    <linearGradient
       inkscape:collect="always"
       xlink:href="#linearGradient4992"
       id="linearGradient3019"
       gradientUnits="userSpaceOnUse"
       x1="100.23509"
       y1="582.01093"
       x2="391.96152"
       y2="582.01093" />
    <linearGradient
       inkscape:collect="always"
       xlink:href="#linearGradient4554"
       id="linearGradient3021"
       gradientUnits="userSpaceOnUse"
       gradientTransform="translate(72.656258,-31.619979)"
       x1="199.61595"
       y1="662.0683"
       x2="338.15536"
       y2="487.79895" />
    <linearGradient
       inkscape:collect="always"
       xlink:href="#linearGradient4992"
       id="linearGradient3023"
       gradientUnits="userSpaceOnUse"
       gradientTransform="translate(72.65625,19.53125)"
       x1="100.23509"
       y1="582.01093"
       x2="391.96152"
       y2="582.01093" />
    <radialGradient
       inkscape:collect="always"
       xlink:href="#linearGradient3789"
       id="radialGradient3025"
       gradientUnits="userSpaceOnUse"
       gradientTransform="matrix(1,0,0,0.33624799,0,698.50751)"
       cx="160.15625"
       cy="1052.3622"
       fx="160.15625"
       fy="1052.3622"
       r="310.91693" />
    <radialGradient
       inkscape:collect="always"
       xlink:href="#linearGradient3789"
       id="radialGradient3027"
       gradientUnits="userSpaceOnUse"
       gradientTransform="matrix(1,0,0,0.33624799,0,698.50751)"
       cx="160.15625"
       cy="1052.3622"
       fx="160.15625"
       fy="1052.3622"
       r="310.91693" />
    <radialGradient
       inkscape:collect="always"
       xlink:href="#linearGradient3789"
       id="radialGradient3029"
       gradientUnits="userSpaceOnUse"
       gradientTransform="matrix(1,0,0,0.33624799,0,698.50751)"
       cx="160.15625"
       cy="1052.3622"
       fx="160.15625"
       fy="1052.3622"
       r="310.91693" />
    <radialGradient
       inkscape:collect="always"
       xlink:href="#linearGradient3789"
       id="radialGradient3031"
       gradientUnits="userSpaceOnUse"
       gradientTransform="matrix(1,0,0,0.33624799,0,698.50751)"
       cx="160.15625"
       cy="1052.3622"
       fx="160.15625"
       fy="1052.3622"
       r="310.91693" />
    <radialGradient
       inkscape:collect="always"
       xlink:href="#linearGradient3789"
       id="radialGradient3033"
       gradientUnits="userSpaceOnUse"
       gradientTransform="matrix(1,0,0,0.33624799,0,698.50751)"
       cx="160.15625"
       cy="1052.3622"
       fx="160.15625"
       fy="1052.3622"
       r="310.91693" />
    <radialGradient
       inkscape:collect="always"
       xlink:href="#linearGradient3789"
       id="radialGradient3035"
       gradientUnits="userSpaceOnUse"
       gradientTransform="matrix(1,0,0,0.33624799,0,698.50751)"
       cx="160.15625"
       cy="1052.3622"
       fx="160.15625"
       fy="1052.3622"
       r="310.91693" />
    <radialGradient
       inkscape:collect="always"
       xlink:href="#linearGradient3789"
       id="radialGradient3037"
       gradientUnits="userSpaceOnUse"
       gradientTransform="matrix(1,0,0,0.33624799,0,698.50751)"
       cx="160.15625"
       cy="1052.3622"
       fx="160.15625"
       fy="1052.3622"
       r="310.91693" />
    <radialGradient
       inkscape:collect="always"
       xlink:href="#linearGradient3789"
       id="radialGradient3039"
       gradientUnits="userSpaceOnUse"
       gradientTransform="matrix(1,0,0,0.33624799,0,698.50751)"
       cx="160.15625"
       cy="1052.3622"
       fx="160.15625"
       fy="1052.3622"
       r="310.91693" />
    <radialGradient
       inkscape:collect="always"
       xlink:href="#linearGradient3789"
       id="radialGradient3041"
       gradientUnits="userSpaceOnUse"
       gradientTransform="matrix(1,0,0,0.33624799,0,698.50751)"
       cx="160.15625"
       cy="1052.3622"
       fx="160.15625"
       fy="1052.3622"
       r="310.91693" />
    <radialGradient
       inkscape:collect="always"
       xlink:href="#linearGradient3789"
       id="radialGradient3043"
       gradientUnits="userSpaceOnUse"
       gradientTransform="matrix(1,0,0,0.33624799,0,698.50751)"
       cx="160.15625"
       cy="1052.3622"
       fx="160.15625"
       fy="1052.3622"
       r="310.91693" />
  </defs>
  <sodipodi:namedview
     id="base"
     pagecolor="#ffffff"
     bordercolor="#666666"
     borderopacity="1.0"
     inkscape:pageopacity="0"
     inkscape:pageshadow="2"
     inkscape:zoom="0.64"
     inkscape:cx="-214.61804"
     inkscape:cy="48.05368"
     inkscape:document-units="px"
     inkscape:current-layer="layer1"
     showgrid="false"
     inkscape:window-width="1600"
     inkscape:window-height="847"
     inkscape:window-x="-8"
     inkscape:window-y="-8"
     inkscape:window-maximized="1"
     showguides="false"
     inkscape:guide-bbox="true"
     inkscape:snap-nodes="true"
     inkscape:snap-bbox="true"
     inkscape:bbox-nodes="true"
     inkscape:snap-bbox-edge-midpoints="true"
     inkscape:bbox-paths="true"
     inkscape:snap-bbox-midpoints="true"
     inkscape:object-paths="true"
     inkscape:snap-intersection-paths="true"
     inkscape:object-nodes="true"
     inkscape:snap-smooth-nodes="true"
     inkscape:snap-midpoints="true"
     inkscape:snap-object-midpoints="true"
     inkscape:snap-center="true"
     showborder="true"
     inkscape:snap-global="false">
    <sodipodi:guide
       orientation="0,1"
       position="268.39859,-267.21631"
       id="guide2937" />
    <sodipodi:guide
       orientation="1,0"
       position="-164.41391,20.283692"
       id="guide2941" />
    <sodipodi:guide
       orientation="0,1"
       position="-221.44516,-217.21631"
       id="guide2943" />
    <sodipodi:guide
       orientation="0,1"
       position="-266.06051,-317.21631"
       id="guide2951" />
    <sodipodi:guide
       orientation="1,0"
       position="-314.41391,-353.39495"
       id="guide2953" />
    <sodipodi:guide
       orientation="1,0"
       position="-14.413907,-317.21631"
       id="guide2957" />
    <sodipodi:guide
       orientation="0,1"
       position="-189.82556,-367.21631"
       id="guide2959" />
    <sodipodi:guide
       orientation="0,1"
       position="-206.39837,-167.21631"
       id="guide2961" />
    <sodipodi:guide
       orientation="1,0"
       position="-414.41391,-106.27881"
       id="guide2965" />
    <sodipodi:guide
       orientation="1,0"
       position="85.586093,-167.21631"
       id="guide2967" />
    <inkscape:grid
       type="xygrid"
       id="grid3747"
       empspacing="5"
       visible="true"
       enabled="true"
       snapvisiblegridlinesonly="true" />
  </sodipodi:namedview>
  <metadata
     id="metadata7">
    <rdf:RDF>
      <cc:Work
         rdf:about="">
        <dc:format>image/svg+xml</dc:format>
        <dc:type
           rdf:resource="http://purl.org/dc/dcmitype/StillImage" />
        <dc:title></dc:title>
      </cc:Work>
    </rdf:RDF>
  </metadata>
  <g
     inkscape:label="Ebene 1"
     inkscape:groupmode="layer"
     id="layer1"
     transform="translate(-164.41391,-529.1459)">
    <g
       id="g4503" />
    <g
       id="layer1-2"
       inkscape:label="Ebene 1"
       transform="translate(-233.55299,193.36162)">
      <g
         transform="translate(12.121831,34.345187)"
         id="g3603" />
    </g>
    <g
       id="g2934"
       transform="matrix(0.68821106,0,0,0.68821106,51.26244,232.22807)">
      <g
         transform="translate(70.65625,20.03125)"
         style="fill:#000000;filter:url(#filter4725)"
         id="g4711">
        <g
           style="fill:#000000"
           id="g4713">
          <path
             transform="translate(-80.442246,282.43297)"
             d="m 471.90378,299.57797 c 0,80.28189 -65.08133,145.36322 -145.36322,145.36322 -80.28189,0 -145.36322,-65.08133 -145.36322,-145.36322 0,-80.28189 65.08133,-145.36322 145.36322,-145.36322 80.28189,0 145.36322,65.08133 145.36322,145.36322 z"
             sodipodi:ry="145.36322"
             sodipodi:rx="145.36322"
             sodipodi:cy="299.57797"
             sodipodi:cx="326.54056"
             id="path4715"
             style="fill:#000000;fill-opacity:1;stroke:none"
             sodipodi:type="arc" />
          <path
             sodipodi:type="arc"
             style="fill:#000000;fill-opacity:1;stroke:none"
             id="path4717"
             sodipodi:cx="326.54056"
             sodipodi:cy="299.57797"
             sodipodi:rx="145.36322"
             sodipodi:ry="145.36322"
             d="m 471.90378,299.57797 c 0,80.28189 -65.08133,145.36322 -145.36322,145.36322 -80.28189,0 -145.36322,-65.08133 -145.36322,-145.36322 0,-80.28189 65.08133,-145.36322 145.36322,-145.36322 80.28189,0 145.36322,65.08133 145.36322,145.36322 z"
             transform="translate(-80.442246,282.43297)" />
        </g>
        <path
           transform="translate(-80.442246,282.43297)"
           d="m 471.90378,299.57797 c 0,80.28189 -65.08133,145.36322 -145.36322,145.36322 -80.28189,0 -145.36322,-65.08133 -145.36322,-145.36322 0,-80.28189 65.08133,-145.36322 145.36322,-145.36322 80.28189,0 145.36322,65.08133 145.36322,145.36322 z"
           sodipodi:ry="145.36322"
           sodipodi:rx="145.36322"
           sodipodi:cy="299.57797"
           sodipodi:cx="326.54056"
           id="path4719"
           style="fill:#000000;fill-opacity:1;stroke:none"
           sodipodi:type="arc" />
        <path
           sodipodi:type="arc"
           style="fill:#000000;fill-opacity:1;stroke:none"
           id="path4721"
           sodipodi:cx="326.54056"
           sodipodi:cy="299.57797"
           sodipodi:rx="145.36322"
           sodipodi:ry="145.36322"
           d="m 471.90378,299.57797 c 0,80.28189 -65.08133,145.36322 -145.36322,145.36322 -80.28189,0 -145.36322,-65.08133 -145.36322,-145.36322 0,-80.28189 65.08133,-145.36322 145.36322,-145.36322 80.28189,0 145.36322,65.08133 145.36322,145.36322 z"
           transform="translate(-80.442246,282.43297)" />
        <path
           style="opacity:0.34767025;fill:#000000;fill-opacity:1;stroke:none"
           d="m 246.08653,436.64772 c -68.54334,0 -125.97382,47.4436 -141.31249,111.28125 34.41239,37.12532 93.3606,66.25539 160.12499,74.71875 47.48149,6.01897 90.801,0.55387 124,-13.34375 1.6799,-8.84164 2.5625,-17.95065 2.5625,-27.28125 0,-80.28189 -65.09311,-145.375 -145.375,-145.375 z"
           id="path4723" />
      </g>
      <g
         transform="translate(72.65625,19.53125)"
         id="g4619"
         style="stroke:url(#linearGradient3019);stroke-width:4;stroke-miterlimit:4;stroke-opacity:1;stroke-dasharray:none">
        <path
           transform="translate(-80.442246,282.43297)"
           d="m 471.90378,299.57797 c 0,80.28189 -65.08133,145.36322 -145.36322,145.36322 -80.28189,0 -145.36322,-65.08133 -145.36322,-145.36322 0,-80.28189 65.08133,-145.36322 145.36322,-145.36322 80.28189,0 145.36322,65.08133 145.36322,145.36322 z"
           sodipodi:ry="145.36322"
           sodipodi:rx="145.36322"
           sodipodi:cy="299.57797"
           sodipodi:cx="326.54056"
           id="path4463"
           style="fill:url(#radialGradient3013);fill-opacity:1;stroke:url(#linearGradient3015);stroke-width:4;stroke-miterlimit:4;stroke-opacity:1;stroke-dasharray:none"
           sodipodi:type="arc" />
        <path
           sodipodi:type="arc"
           style="fill:url(#pattern4461);fill-opacity:1;stroke:url(#linearGradient3017);stroke-width:4;stroke-miterlimit:4;stroke-opacity:1;stroke-dasharray:none"
           id="path2816"
           sodipodi:cx="326.54056"
           sodipodi:cy="299.57797"
           sodipodi:rx="145.36322"
           sodipodi:ry="145.36322"
           d="m 471.90378,299.57797 c 0,80.28189 -65.08133,145.36322 -145.36322,145.36322 -80.28189,0 -145.36322,-65.08133 -145.36322,-145.36322 0,-80.28189 65.08133,-145.36322 145.36322,-145.36322 80.28189,0 145.36322,65.08133 145.36322,145.36322 z"
           transform="translate(-80.442246,282.43297)" />
      </g>
      <path
         style="opacity:0.34767025;fill:url(#linearGradient3021);fill-opacity:1;stroke:url(#linearGradient3023);stroke-width:4;stroke-miterlimit:4;stroke-opacity:1;stroke-dasharray:none"
         d="m 318.74278,456.17897 c -68.54334,0 -125.97382,47.4436 -141.31249,111.28125 34.41239,37.12532 93.3606,66.25539 160.12499,74.71875 47.48149,6.01897 90.801,0.55387 124,-13.34375 1.6799,-8.84164 2.5625,-17.95065 2.5625,-27.28125 0,-80.28189 -65.09311,-145.375 -145.375,-145.375 z"
         id="path4630" />
      <g
         id="g3947">
        <g
           id="g3809"
           style="fill:none;stroke:#000000;filter:url(#filter3865)"
           transform="matrix(0.57620234,0,0,0.57620234,279.15898,114.38245)">
          <g
             id="g3811"
             transform="matrix(0.88796095,0,0,1.0003294,17.943755,-0.34660096)"
             style="fill:none;stroke:#000000">
            <g
               id="g3813"
               style="fill:none;stroke:#000000">
              <path
                 style="fill:none;stroke:#000000;stroke-width:24.11363602;stroke-linecap:butt;stroke-linejoin:miter;stroke-opacity:1"
                 d="m -74.322104,1128.1397 148.644208,0 49.548066,-37.8887 0,-75.7776 -49.548066,-37.88874 -148.644208,0 -49.548066,37.88874 0,75.7776 49.548066,37.8887 z"
                 id="path3815" />
              <path
                 id="path3817"
                 d="m 245.9904,1128.1397 148.6442,0 49.54807,-37.8887 0,-75.7776 -49.54807,-37.88874 -148.6442,0 -49.54807,37.88874 0,75.7776 49.54807,37.8887 z"
                 style="fill:none;stroke:#000000;stroke-width:24.11363602;stroke-linecap:butt;stroke-linejoin:miter;stroke-opacity:1" />
            </g>
            <path
               sodipodi:nodetypes="cc"
               id="path3819"
               d="m 42.93602,1052.3622 234.44046,0"
               style="fill:none;stroke:#000000;stroke-width:27.92692566;stroke-linecap:square;stroke-linejoin:miter;stroke-opacity:1" />
          </g>
          <g
             id="g3821"
             style="fill:none;stroke:#000000;filter:url(#filter3785)"
             transform="matrix(0.88796095,0,0,1.0003294,17.943755,-0.34660096)">
            <g
               id="g3823"
               style="fill:none;stroke:#000000">
              <path
                 id="path3825"
                 d="m -74.322104,1128.1397 148.644208,0 49.548066,-37.8887 0,-75.7776 -49.548066,-37.88874 -148.644208,0 -49.548066,37.88874 0,75.7776 49.548066,37.8887 z"
                 style="fill:none;stroke:#000000;stroke-width:24.11363602;stroke-linecap:butt;stroke-linejoin:miter;stroke-opacity:1" />
              <path
                 style="fill:none;stroke:#000000;stroke-width:24.11363602;stroke-linecap:butt;stroke-linejoin:miter;stroke-opacity:1"
                 d="m 245.9904,1128.1397 148.6442,0 49.54807,-37.8887 0,-75.7776 -49.54807,-37.88874 -148.6442,0 -49.54807,37.88874 0,75.7776 49.54807,37.8887 z"
                 id="path3827" />
            </g>
            <path
               style="fill:none;stroke:#000000;stroke-width:27.92692566;stroke-linecap:square;stroke-linejoin:miter;stroke-opacity:1"
               d="m 42.93602,1052.3622 234.44046,0"
               id="path3829"
               sodipodi:nodetypes="cc" />
          </g>
        </g>
        <g
           id="g3797"
           transform="matrix(0.57620234,0,0,0.57620234,282.61619,114.38245)">
          <g
             transform="matrix(0.88796095,0,0,1.0003294,17.943755,-0.34660096)"
             id="g3753">
            <g
               id="g3749">
              <path
                 id="path2969"
                 d="m -74.322104,1128.1397 148.644208,0 49.548066,-37.8887 0,-75.7776 -49.548066,-37.88874 -148.644208,0 -49.548066,37.88874 0,75.7776 49.548066,37.8887 z"
                 style="fill:none;stroke:#000000;stroke-width:24.11363602;stroke-linecap:butt;stroke-linejoin:miter;stroke-opacity:1" />
              <path
                 style="fill:none;stroke:#000000;stroke-width:24.11363602;stroke-linecap:butt;stroke-linejoin:miter;stroke-opacity:1"
                 d="m 245.9904,1128.1397 148.6442,0 49.54807,-37.8887 0,-75.7776 -49.54807,-37.88874 -148.6442,0 -49.54807,37.88874 0,75.7776 49.54807,37.8887 z"
                 id="path2971" />
            </g>
            <path
               style="fill:none;stroke:#000000;stroke-width:27.92692566;stroke-linecap:square;stroke-linejoin:miter;stroke-opacity:1"
               d="m 42.93602,1052.3622 234.44046,0"
               id="path2973"
               sodipodi:nodetypes="cc" />
          </g>
          <g
             transform="matrix(0.88796095,0,0,1.0003294,17.943755,-0.34660096)"
             style="fill:none;stroke:url(#radialGradient3033);filter:url(#filter3785)"
             id="g3759">
            <g
               style="fill:none;stroke:url(#radialGradient3029)"
               id="g3761">
              <path
                 style="fill:none;stroke:url(#radialGradient3025);stroke-width:24.11363602;stroke-linecap:butt;stroke-linejoin:miter;stroke-opacity:1"
                 d="m -74.322104,1128.1397 148.644208,0 49.548066,-37.8887 0,-75.7776 -49.548066,-37.88874 -148.644208,0 -49.548066,37.88874 0,75.7776 49.548066,37.8887 z"
                 id="path3763" />
              <path
                 id="path3765"
                 d="m 245.9904,1128.1397 148.6442,0 49.54807,-37.8887 0,-75.7776 -49.54807,-37.88874 -148.6442,0 -49.54807,37.88874 0,75.7776 49.54807,37.8887 z"
                 style="fill:none;stroke:url(#radialGradient3027);stroke-width:24.11363602;stroke-linecap:butt;stroke-linejoin:miter;stroke-opacity:1" />
            </g>
            <path
               sodipodi:nodetypes="cc"
               id="path3767"
               d="m 42.93602,1052.3622 234.44046,0"
               style="fill:none;stroke:url(#radialGradient3031);stroke-width:27.92692566;stroke-linecap:square;stroke-linejoin:miter;stroke-opacity:1" />
          </g>
        </g>
        <g
           transform="matrix(0.57620234,0,0,0.57620234,282.61619,114.38245)"
           id="g3925">
          <g
             id="g3927"
             transform="matrix(0.88796095,0,0,1.0003294,17.943755,-0.34660096)">
            <g
               id="g3929">
              <path
                 style="fill:none;stroke:#000000;stroke-width:24.11363602;stroke-linecap:butt;stroke-linejoin:miter;stroke-opacity:1"
                 d="m -74.322104,1128.1397 148.644208,0 49.548066,-37.8887 0,-75.7776 -49.548066,-37.88874 -148.644208,0 -49.548066,37.88874 0,75.7776 49.548066,37.8887 z"
                 id="path3931" />
              <path
                 id="path3933"
                 d="m 245.9904,1128.1397 148.6442,0 49.54807,-37.8887 0,-75.7776 -49.54807,-37.88874 -148.6442,0 -49.54807,37.88874 0,75.7776 49.54807,37.8887 z"
                 style="fill:none;stroke:#000000;stroke-width:24.11363602;stroke-linecap:butt;stroke-linejoin:miter;stroke-opacity:1" />
            </g>
            <path
               sodipodi:nodetypes="cc"
               id="path3935"
               d="m 42.93602,1052.3622 234.44046,0"
               style="fill:none;stroke:#000000;stroke-width:27.92692566;stroke-linecap:square;stroke-linejoin:miter;stroke-opacity:1" />
          </g>
          <g
             id="g3937"
             style="fill:none;stroke:url(#radialGradient3043);filter:url(#filter3785)"
             transform="matrix(0.88796095,0,0,1.0003294,17.943755,-0.34660096)">
            <g
               id="g3939"
               style="fill:none;stroke:url(#radialGradient3039)">
              <path
                 id="path3941"
                 d="m -74.322104,1128.1397 148.644208,0 49.548066,-37.8887 0,-75.7776 -49.548066,-37.88874 -148.644208,0 -49.548066,37.88874 0,75.7776 49.548066,37.8887 z"
                 style="fill:none;stroke:url(#radialGradient3035);stroke-width:24.11363602;stroke-linecap:butt;stroke-linejoin:miter;stroke-opacity:1" />
              <path
                 style="fill:none;stroke:url(#radialGradient3037);stroke-width:24.11363602;stroke-linecap:butt;stroke-linejoin:miter;stroke-opacity:1"
                 d="m 245.9904,1128.1397 148.6442,0 49.54807,-37.8887 0,-75.7776 -49.54807,-37.88874 -148.6442,0 -49.54807,37.88874 0,75.7776 49.54807,37.8887 z"
                 id="path3943" />
            </g>
            <path
               style="fill:none;stroke:url(#radialGradient3041);stroke-width:27.92692566;stroke-linecap:square;stroke-linejoin:miter;stroke-opacity:1"
               d="m 42.93602,1052.3622 234.44046,0"
               id="path3945"
               sodipodi:nodetypes="cc" />
          </g>
        </g>
      </g>
    </g>
  </g>
</svg>
