<?xml version="1.0" encoding="UTF-8" standalone="no"?>
<!-- Created with Inkscape (http://www.inkscape.org/) -->

<svg
   xmlns:dc="http://purl.org/dc/elements/1.1/"
   xmlns:cc="http://creativecommons.org/ns#"
   xmlns:rdf="http://www.w3.org/1999/02/22-rdf-syntax-ns#"
   xmlns:svg="http://www.w3.org/2000/svg"
   xmlns="http://www.w3.org/2000/svg"
   xmlns:sodipodi="http://sodipodi.sourceforge.net/DTD/sodipodi-0.dtd"
   xmlns:inkscape="http://www.inkscape.org/namespaces/inkscape"
   width="256"
   height="256"
   id="svg2"
   version="1.1"
   inkscape:version="0.48.5 r10040"
   sodipodi:docname="new_file.svg"
   inkscape:export-filename="D:\Pictures\Graphics\new_file.png"
   inkscape:export-xdpi="180"
   inkscape:export-ydpi="180">
  <defs
     id="defs4">
    <inkscape:perspective
       sodipodi:type="inkscape:persp3d"
       inkscape:vp_x="0 : 526.18109 : 1"
       inkscape:vp_y="0 : 1000 : 0"
       inkscape:vp_z="744.09448 : 526.18109 : 1"
       inkscape:persp3d-origin="372.04724 : 350.78739 : 1"
       id="perspective10" />
    <filter
       inkscape:collect="always"
       id="filter3603"
       color-interpolation-filters="sRGB">
      <feGaussianBlur
         inkscape:collect="always"
         stdDeviation="1.3979687"
         id="feGaussianBlur3605" />
    </filter>
    <filter
       inkscape:collect="always"
       id="filter3609"
       color-interpolation-filters="sRGB">
      <feGaussianBlur
         inkscape:collect="always"
         stdDeviation="8.9823438"
         id="feGaussianBlur3611" />
    </filter>
  </defs>
  <sodipodi:namedview
     id="base"
     pagecolor="#ffffff"
     bordercolor="#666666"
     borderopacity="1.0"
     inkscape:pageopacity="0.0"
     inkscape:pageshadow="2"
     inkscape:zoom="1.3863281"
     inkscape:cx="161.02837"
     inkscape:cy="74.533108"
     inkscape:document-units="px"
     inkscape:current-layer="text3797"
     showgrid="false"
     width="744.09px"
     inkscape:window-width="1600"
     inkscape:window-height="847"
     inkscape:window-x="-8"
     inkscape:window-y="-8"
     inkscape:window-maximized="1" />
  <metadata
     id="metadata7">
    <rdf:RDF>
      <cc:Work
         rdf:about="">
        <dc:format>image/svg+xml</dc:format>
        <dc:type
           rdf:resource="http://purl.org/dc/dcmitype/StillImage" />
        <dc:title></dc:title>
      </cc:Work>
    </rdf:RDF>
  </metadata>
  <g
     inkscape:label="Ebene 1"
     inkscape:groupmode="layer"
     id="layer1"
     transform="translate(0,-796.36217)">
    <path
       inkscape:connector-curvature="0"
       transform="matrix(0.23368533,0,0,0.23368533,41.058103,801.39987)"
       id="path3607"
       d="M 604.28125,0 0,0 l 0,1052.375 744.09375,0 0,-912.59375 L 604.28125,0 z"
       style="fill:#b597cd;fill-opacity:1;stroke:none;filter:url(#filter3609)"
       inkscape:export-filename="D:\Desktop\text3797.png"
       inkscape:export-xdpi="500.98065"
       inkscape:export-ydpi="500.98065" />
    <path
       inkscape:connector-curvature="0"
       style="fill:#ffffff;fill-opacity:1;stroke:none"
       d="m 182.26977,801.39987 -141.211667,0 0,245.92463 173.883797,0 0,-213.2598 -32.67213,-32.66483 z"
       id="path3595"
       inkscape:export-filename="D:\Desktop\text3797.png"
       inkscape:export-xdpi="500.98065"
       inkscape:export-ydpi="500.98065" />
    <path
       inkscape:connector-curvature="0"
       id="path3597"
       d="M 743.59375,140.28343 603.78125,0.50218262 l 0,139.78124738 139.8125,0 z"
       style="fill:#002255;fill-opacity:1;stroke:none;filter:url(#filter3603)"
       transform="matrix(0.23368533,0,0,0.23368533,41.058103,801.39936)"
       inkscape:export-filename="D:\Desktop\text3797.png"
       inkscape:export-xdpi="500.98065"
       inkscape:export-ydpi="500.98065" />
    <path
       inkscape:connector-curvature="0"
       style="fill:#8148af;fill-opacity:1;stroke:none"
       d="m 214.9419,834.0647 -32.67213,-32.66483 0,32.66483 32.67213,0 z"
       id="rect2816"
       inkscape:export-filename="D:\Desktop\text3797.png"
       inkscape:export-xdpi="500.98065"
       inkscape:export-ydpi="500.98065" />
    <g
       id="g2993"
       transform="translate(-2.0999561,0)">
      <g
         style="font-size:35.46489716px;font-style:normal;font-variant:normal;font-weight:normal;font-stretch:normal;line-height:125%;letter-spacing:0px;word-spacing:0px;fill:#aa0000;fill-opacity:1;stroke:none;font-family:Times New Roman;-inkscape-font-specification:Times New Roman"
         id="text3797">
        <path
           d="m 102.74692,1007.847 c -1.76488,0 -3.283709,0 -4.556494,0 l 0,28.5068 1.540117,0 1.292267,0 0,-2.3399 0,-10.1585 c 4.39198,0.1226 7.36795,-0.2057 8.92792,-0.9849 1.60107,-0.6573 2.88396,-1.6222 3.84867,-2.8947 0.96467,-1.2724 1.44702,-2.7705 1.44704,-4.4942 -2e-5,-2.1343 -0.69793,-3.9403 -2.09372,-5.418 -1.39582,-1.4777 -3.11975,-2.2166 -5.17178,-2.2166 -0.53395,0 -1.396,0 -2.58617,0 -1.19018,0 -2.07279,0 -2.64785,0 z m 4.37142,2.3389 c 1.47769,0 2.74002,0.4823 3.78698,1.447 1.04693,0.9647 1.54984,2.1654 1.50873,3.6019 -0.0823,1.5189 -0.61603,2.8119 -1.60127,3.879 -0.98527,1.0672 -2.19618,1.6007 -3.63275,1.6007 l -6.15722,0 0,-10.5286 z"
           style="fill:#aa0000;font-family:Navigator;-inkscape-font-specification:Navigator"
           id="path2998" />
        <path
           d="m 119.80185,1007.847 0,28.5068 10.46803,0 c 2.87314,0 5.33592,-1.3956 7.38834,-4.1869 2.05238,-2.7912 3.07859,-6.157 3.07861,-10.0973 -2e-5,-3.9403 -1.02623,-7.2958 -3.07861,-10.0665 -2.05242,-2.7707 -4.5152,-4.1561 -7.38834,-4.1561 z m 3.01746,3.0164 7.45057,0 c 1.84712,0 3.48897,0.9853 4.92556,2.9558 1.6826,2.2577 2.52391,5.0181 2.52393,8.2812 -2e-5,3.2632 -0.84133,6.0236 -2.52393,8.2812 -1.43659,1.9706 -3.07844,2.9558 -4.92556,2.9558 l -7.45057,0 z"
           style="fill:#aa0000;font-family:Navigator;-inkscape-font-specification:Navigator"
           id="path3000" />
        <path
           d="m 145.56931,1007.847 0,28.5068 3.38653,0 0,-12.6835 10.89878,0 0,-3.1398 -10.89878,0 0,-9.5437 13.05365,0 0,-3.1398 z"
           style="fill:#aa0000;font-family:Navigator;-inkscape-font-specification:Navigator"
           id="path3002" />
      </g>
    </g>
  </g>
</svg>
