<?xml version="1.0" encoding="UTF-8" standalone="no"?>
<!-- Created with Inkscape (http://www.inkscape.org/) -->

<svg
   xmlns:dc="http://purl.org/dc/elements/1.1/"
   xmlns:cc="http://creativecommons.org/ns#"
   xmlns:rdf="http://www.w3.org/1999/02/22-rdf-syntax-ns#"
   xmlns:svg="http://www.w3.org/2000/svg"
   xmlns="http://www.w3.org/2000/svg"
   xmlns:sodipodi="http://sodipodi.sourceforge.net/DTD/sodipodi-0.dtd"
   xmlns:inkscape="http://www.inkscape.org/namespaces/inkscape"
   width="256"
   height="256"
   id="svg2"
   version="1.1"
   inkscape:version="0.48.5 r10040"
   sodipodi:docname="paperclip.svg"
   inkscape:export-filename="D:\Pictures\Graphics\paperclip.png"
   inkscape:export-xdpi="180"
   inkscape:export-ydpi="180">
  <defs
     id="defs4">
    <inkscape:perspective
       sodipodi:type="inkscape:persp3d"
       inkscape:vp_x="0 : 526.18109 : 1"
       inkscape:vp_y="0 : 1000 : 0"
       inkscape:vp_z="744.09448 : 526.18109 : 1"
       inkscape:persp3d-origin="372.04724 : 350.78739 : 1"
       id="perspective10" />
    <filter
       inkscape:collect="always"
       id="filter3741"
       color-interpolation-filters="sRGB">
      <feGaussianBlur
         inkscape:collect="always"
         stdDeviation="12.058709"
         id="feGaussianBlur3743" />
    </filter>
    <filter
       inkscape:collect="always"
       id="filter3763"
       color-interpolation-filters="sRGB">
      <feGaussianBlur
         inkscape:collect="always"
         stdDeviation="1.5073387"
         id="feGaussianBlur3765" />
    </filter>
  </defs>
  <sodipodi:namedview
     id="base"
     pagecolor="#ffffff"
     bordercolor="#666666"
     borderopacity="1.0"
     inkscape:pageopacity="0.0"
     inkscape:pageshadow="2"
     inkscape:zoom="0.70000001"
     inkscape:cx="-73.957643"
     inkscape:cy="174.48227"
     inkscape:document-units="px"
     inkscape:current-layer="layer1"
     showgrid="false"
     showguides="false"
     inkscape:guide-bbox="true"
     inkscape:snap-bbox="true"
     inkscape:bbox-paths="true"
     inkscape:bbox-nodes="true"
     inkscape:snap-bbox-edge-midpoints="true"
     inkscape:snap-bbox-midpoints="true"
     inkscape:object-paths="true"
     inkscape:snap-intersection-paths="true"
     inkscape:object-nodes="true"
     inkscape:snap-smooth-nodes="true"
     inkscape:snap-object-midpoints="true"
     inkscape:snap-center="true"
     inkscape:snap-midpoints="true"
     inkscape:window-width="1600"
     inkscape:window-height="847"
     inkscape:window-x="-8"
     inkscape:window-y="-8"
     inkscape:window-maximized="1"
     inkscape:snap-nodes="true"
     inkscape:snap-global="false">
    <sodipodi:guide
       orientation="1,0"
       position="218.19295,408.10163"
       id="guide2818" />
    <sodipodi:guide
       orientation="1,0"
       position="218.19295,757.61441"
       id="guide3725" />
    <sodipodi:guide
       orientation="1,0"
       position="474.28571,1002.8571"
       id="guide3727" />
    <sodipodi:guide
       orientation="1,0"
       position="651.42857,1371.4286"
       id="guide3729" />
  </sodipodi:namedview>
  <metadata
     id="metadata7">
    <rdf:RDF>
      <cc:Work
         rdf:about="">
        <dc:format>image/svg+xml</dc:format>
        <dc:type
           rdf:resource="http://purl.org/dc/dcmitype/StillImage" />
        <dc:title></dc:title>
      </cc:Work>
    </rdf:RDF>
  </metadata>
  <g
     inkscape:label="Ebene 1"
     inkscape:groupmode="layer"
     id="layer1"
     transform="translate(0,-796.36218)">
    <g
       id="g3783"
       transform="matrix(0.26008374,0,0,0.25593564,35.054696,786.59303)">
      <path
         transform="matrix(0,1,-1,0,984.55633,-4.9388699)"
         style="fill:none;stroke:#000000;stroke-width:32;stroke-linecap:round;stroke-linejoin:round;stroke-miterlimit:4;stroke-opacity:1;stroke-dasharray:none;filter:url(#filter3763)"
         d="m 183.9899,682.64635 c 0,0 315.57194,1.59678 477.68233,0 20.87547,-0.20562 93.94317,-31.52035 93.94343,-62.78367 2.5e-4,-31.26332 -73.06695,-62.47524 -93.94343,-62.47524 -162.6444,0 -586.778809,0 -586.778809,0 l 0,218.396 c 0,0 542.030329,0 721.248919,0 49.53132,0 187.43411,-74.29698 187.43411,-148.59395 0,-74.29698 -137.90279,-148.59395 -187.43411,-148.59395 -179.05934,0 -612.15244,0 -612.15244,0"
         id="path3753"
         sodipodi:nodetypes="csssccsssc" />
      <path
         style="fill:none;stroke:#000000;stroke-width:32;stroke-linecap:round;stroke-linejoin:round;stroke-miterlimit:4;stroke-opacity:1;stroke-dasharray:none"
         d="m 301.90998,193.05103 c 0,0 -1.59678,315.57194 0,477.68233 0.20562,20.87547 31.52035,93.94317 62.78367,93.94343 31.26332,2.5e-4 62.47524,-73.06695 62.47524,-93.94343 0,-162.6444 0,-586.778809 0,-586.778809 l -218.396,0 c 0,0 0,542.030329 0,721.248919 0,49.53132 74.29698,187.43411 148.59395,187.43411 74.29698,0 148.59395,-137.90279 148.59395,-187.43411 0,-179.05934 0,-612.15244 0,-612.15244"
         id="path3723"
         sodipodi:nodetypes="csssccsssc" />
      <path
         transform="matrix(0,1,-1,0,984.55633,-4.9388699)"
         sodipodi:nodetypes="csssccsssc"
         id="path3731"
         d="m 197.9899,682.64635 c 0,0 315.57194,1.59678 477.68233,0 20.87547,-0.20562 93.94317,-31.52035 93.94343,-62.78367 2.5e-4,-31.26332 -73.06695,-62.47524 -93.94343,-62.47524 -162.6444,0 -586.778809,0 -586.778809,0 l 0,218.396 c 0,0 542.030329,0 721.248919,0 49.53132,0 187.43411,-74.29698 187.43411,-148.59395 0,-74.29698 -137.90279,-148.59395 -187.43411,-148.59395 -179.05934,0 -612.15244,0 -612.15244,0"
         style="opacity:0.75627238;fill:none;stroke:#ffffff;stroke-width:32;stroke-linecap:round;stroke-linejoin:round;stroke-miterlimit:4;stroke-opacity:1;stroke-dasharray:none;filter:url(#filter3741)" />
    </g>
  </g>
</svg>
