<?xml version="1.0" encoding="UTF-8" standalone="no"?>
<!-- Created with Inkscape (http://www.inkscape.org/) -->

<svg
   xmlns:dc="http://purl.org/dc/elements/1.1/"
   xmlns:cc="http://creativecommons.org/ns#"
   xmlns:rdf="http://www.w3.org/1999/02/22-rdf-syntax-ns#"
   xmlns:svg="http://www.w3.org/2000/svg"
   xmlns="http://www.w3.org/2000/svg"
   xmlns:xlink="http://www.w3.org/1999/xlink"
   xmlns:sodipodi="http://sodipodi.sourceforge.net/DTD/sodipodi-0.dtd"
   xmlns:inkscape="http://www.inkscape.org/namespaces/inkscape"
   width="256"
   height="256"
   id="svg2"
   version="1.1"
   inkscape:version="0.48.5 r10040"
   sodipodi:docname="picture.svg"
   inkscape:export-filename="D:\Pictures\Graphics\picture.png"
   inkscape:export-xdpi="180"
   inkscape:export-ydpi="180">
  <sodipodi:namedview
     id="base"
     pagecolor="#ffffff"
     bordercolor="#666666"
     borderopacity="1.0"
     inkscape:pageopacity="0.0"
     inkscape:pageshadow="2"
     inkscape:zoom="0.51408155"
     inkscape:cx="113.53801"
     inkscape:cy="167.31191"
     inkscape:document-units="px"
     inkscape:current-layer="layer1"
     showgrid="false"
     inkscape:window-width="1600"
     inkscape:window-height="847"
     inkscape:window-x="-8"
     inkscape:window-y="-8"
     inkscape:window-maximized="1" />
  <defs
     id="defs4">
    <linearGradient
       id="linearGradient3590">
      <stop
         style="stop-color:#ff8100;stop-opacity:1;"
         offset="0"
         id="stop3592" />
      <stop
         style="stop-color:#ffff00;stop-opacity:1;"
         offset="1"
         id="stop3594" />
    </linearGradient>
    <inkscape:perspective
       sodipodi:type="inkscape:persp3d"
       inkscape:vp_x="0 : 526.18109 : 1"
       inkscape:vp_y="0 : 1000 : 0"
       inkscape:vp_z="744.09448 : 526.18109 : 1"
       inkscape:persp3d-origin="372.04724 : 350.78739 : 1"
       id="perspective10" />
    <linearGradient
       inkscape:collect="always"
       xlink:href="#linearGradient3590"
       id="linearGradient3902"
       gradientUnits="userSpaceOnUse"
       gradientTransform="translate(-19.25666,308.2677)"
       x1="305.71426"
       y1="31.676901"
       x2="305.71426"
       y2="581.15778" />
    <filter
       inkscape:collect="always"
       id="filter3938"
       x="-0.93855697"
       width="2.8771138"
       y="-0.48504236"
       height="1.9700847"
       color-interpolation-filters="sRGB">
      <feGaussianBlur
         inkscape:collect="always"
         stdDeviation="2.4441588"
         id="feGaussianBlur3940" />
    </filter>
    <filter
       inkscape:collect="always"
       id="filter3956"
       x="-0.36458313"
       width="1.7291663"
       y="-0.43783543"
       height="1.8756709"
       color-interpolation-filters="sRGB">
      <feGaussianBlur
         inkscape:collect="always"
         stdDeviation="4.1619961"
         id="feGaussianBlur3958" />
    </filter>
    <filter
       inkscape:collect="always"
       id="filter3970"
       x="-0.51524764"
       width="2.0304954"
       y="-6.4316111"
       height="13.863222"
       color-interpolation-filters="sRGB">
      <feGaussianBlur
         inkscape:collect="always"
         stdDeviation="2.7589747"
         id="feGaussianBlur3972" />
    </filter>
    <filter
       inkscape:collect="always"
       id="filter3980"
       x="-0.41732201"
       width="1.834644"
       y="-4.1730342"
       height="9.3460684"
       color-interpolation-filters="sRGB">
      <feGaussianBlur
         inkscape:collect="always"
         stdDeviation="3.6247646"
         id="feGaussianBlur3982" />
    </filter>
    <filter
       inkscape:collect="always"
       id="filter3992"
       color-interpolation-filters="sRGB">
      <feGaussianBlur
         inkscape:collect="always"
         stdDeviation="1.1295969"
         id="feGaussianBlur3994" />
    </filter>
    <linearGradient
       inkscape:collect="always"
       xlink:href="#linearGradient3590"
       id="linearGradient4002"
       gradientUnits="userSpaceOnUse"
       gradientTransform="translate(-550.19034,0)"
       x1="305.71426"
       y1="31.676901"
       x2="305.71426"
       y2="581.15778" />
    <filter
       inkscape:collect="always"
       id="filter4009"
       color-interpolation-filters="sRGB">
      <feGaussianBlur
         inkscape:collect="always"
         stdDeviation="1.3303125"
         id="feGaussianBlur4011" />
    </filter>
  </defs>
  <metadata
     id="metadata7">
    <rdf:RDF>
      <cc:Work
         rdf:about="">
        <dc:format>image/svg+xml</dc:format>
        <dc:type
           rdf:resource="http://purl.org/dc/dcmitype/StillImage" />
        <dc:title></dc:title>
      </cc:Work>
    </rdf:RDF>
  </metadata>
  <g
     inkscape:label="Ebene 1"
     inkscape:groupmode="layer"
     id="layer1"
     transform="translate(0,-796.36218)">
    <g
       id="g2839"
       transform="matrix(0.74566403,0,0,0.75278756,-85.60114,441.03713)">
      <rect
         y="475.21933"
         x="120.74334"
         height="331.42856"
         width="331.42856"
         id="rect2816"
         style="fill:url(#linearGradient3902);fill-opacity:1;stroke:#000000;stroke-width:6;stroke-linecap:square;stroke-linejoin:miter;stroke-miterlimit:4;stroke-opacity:1;stroke-dasharray:none" />
      <path
         id="rect3598"
         d="m 368.56766,685.35113 c 0,0 -3.51495,9.63537 -9.24304,12.15416 -2.65203,1.16618 -5.77359,12.97341 -9.24304,14.49902 -2.87133,1.26259 -5.97444,-5.1109 -9.24304,-3.67361 -2.96715,1.30474 -6.06427,11.4989 -9.24304,12.8967 -3.02693,1.33103 -6.15296,-8.6025 -9.27427,-7.22997 -3.07435,1.35188 -6.1687,9.16089 -9.24304,10.51276 -3.12115,1.37245 -6.21629,-12.66439 -9.24304,-11.33346 -3.17883,1.39782 -6.27586,19.64263 -9.24304,20.94737 -3.26829,1.43716 -6.37199,7.10084 -9.24304,8.36331 -3.46885,1.52535 -6.5914,0.70988 -9.24303,1.87588 -5.72789,2.5187 -9.24304,-10.98173 -9.24304,-10.98173 0,0 -3.43292,7.50845 -8.64974,3.94717 -2.52173,-1.72147 -5.44225,-20.10783 -8.61851,-22.27611 -2.74382,-1.87308 -5.67332,-1.01646 -8.64974,-3.04831 -2.86242,-1.95405 -5.78733,-2.38395 -8.64973,-4.33798 -2.97618,-2.0317 -5.87491,13.55812 -8.61851,11.68519 -3.17663,-2.16854 -6.12781,-17.77977 -8.64974,-19.50137 -5.21629,-3.56092 -8.64974,-13.36567 -8.64974,-13.36567 0,0 -3.71038,2.08353 -9.83634,2.61842 -2.81787,0.24605 -6.16189,-1.10518 -9.86757,-0.78162 -3.05026,0.26634 -6.34348,2.03988 -9.83634,2.34486 -3.15041,0.27508 -6.46813,6.1906 -9.86757,6.48743 -3.21052,0.28033 -6.49501,-3.76995 -9.83634,-3.4782 -3.25598,0.28429 -6.53932,10.772 -9.83635,11.05989 -3.29698,0.28789 -6.61162,-11.22695 -9.86757,-10.94265 -3.34126,0.29174 -6.62587,21.87855 -9.83634,22.15887 -2.28304,0.19935 -4.53517,-10.63232 -6.71369,-17.70365 l 0,107.78512 331.15687,0 0,-92.93438 c -1.95164,1.85174 -3.89059,4.27394 -5.83935,3.90809 -3.25094,-0.6103 -6.50096,-22.49411 -9.71144,-23.09681 -3.27277,-0.6144 -6.52332,23.53898 -9.71143,22.94049 -3.29886,-0.61929 -6.55009,-4.29163 -9.71144,-4.88511 -3.33266,-0.62565 -6.55475,-8.01106 -9.68021,-8.5978 -3.38373,-0.63523 -6.63871,-16.14978 -9.71144,-16.72663 -3.47256,-0.65196 -6.73246,0.59832 -9.71143,0.039 -3.68221,-0.69126 -6.92678,20.60449 -9.68021,20.08758 -6.11513,-1.14799 -9.71144,-21.41633 -9.71144,-21.41633 z"
         style="fill:#4d4d4d;fill-opacity:1;stroke:#666666;stroke-width:6.7072587;stroke-linecap:square;stroke-linejoin:miter;stroke-miterlimit:4;stroke-opacity:1;stroke-dasharray:none;filter:url(#filter3992)" />
      <rect
         y="518.67755"
         x="343.86896"
         height="57.769985"
         width="57.769985"
         id="rect3900"
         style="fill:#4d4d4d;fill-opacity:1;stroke:none" />
      <path
         transform="matrix(0.99924753,0,0,1.2505887,0.21555067,-202.74533)"
         id="path3916"
         d="m 388.50048,711.61074 -5.34375,11.6875 0.90625,0.40625 5.34375,-11.65625 -0.90625,-0.4375 z"
         style="font-size:medium;font-style:normal;font-variant:normal;font-weight:normal;font-stretch:normal;text-indent:0;text-align:start;text-decoration:none;line-height:normal;letter-spacing:normal;word-spacing:normal;text-transform:none;direction:ltr;block-progression:tb;writing-mode:lr-tb;text-anchor:start;color:#000000;fill:none;stroke:#ffffff;stroke-width:1px;stroke-linecap:round;stroke-linejoin:round;stroke-opacity:1;marker:none;visibility:visible;display:inline;overflow:visible;filter:url(#filter3938);enable-background:accumulate;font-family:Bitstream Vera Sans;-inkscape-font-specification:Bitstream Vera Sans" />
      <path
         transform="matrix(0.99924753,0,0,1.2505887,0.21555067,-202.74533)"
         id="path3942"
         d="m 395.72069,714.17986 -0.85771,0.49081 6.75389,12.28011 0.0516,0.12989 0.11918,0.073 15.80373,9.16909 0.0907,0.0391 0.0933,0.008 4.33749,0.62395 0.14795,-0.99097 -4.27522,-0.61859 -15.56536,-9.02313 -6.69965,-12.18134 z"
         style="font-size:medium;font-style:normal;font-variant:normal;font-weight:normal;font-stretch:normal;text-indent:0;text-align:start;text-decoration:none;line-height:normal;letter-spacing:normal;word-spacing:normal;text-transform:none;direction:ltr;block-progression:tb;writing-mode:lr-tb;text-anchor:start;color:#000000;fill:none;stroke:#ffffff;stroke-width:1.70000005;stroke-linecap:round;stroke-linejoin:round;stroke-miterlimit:4;stroke-opacity:1;stroke-dasharray:none;marker:none;visibility:visible;display:inline;overflow:visible;filter:url(#filter3956);enable-background:accumulate;font-family:Bitstream Vera Sans;-inkscape-font-specification:Bitstream Vera Sans" />
      <path
         inkscape:transform-center-y="0.2458932"
         inkscape:transform-center-x="9.2118425"
         transform="matrix(0.41384447,1.1382932,-0.90952096,0.51793897,884.2832,-122.43825)"
         style="font-size:medium;font-style:normal;font-variant:normal;font-weight:normal;font-stretch:normal;text-indent:0;text-align:start;text-decoration:none;line-height:normal;letter-spacing:normal;word-spacing:normal;text-transform:none;direction:ltr;block-progression:tb;writing-mode:lr-tb;text-anchor:start;opacity:0.83154123;color:#000000;fill:none;stroke:#ffffff;stroke-width:1px;stroke-linecap:round;stroke-linejoin:round;stroke-opacity:1;marker:none;visibility:visible;display:inline;overflow:visible;filter:url(#filter3970);enable-background:accumulate;font-family:Bitstream Vera Sans;-inkscape-font-specification:Bitstream Vera Sans"
         d="m 388.50048,711.61074 -5.34375,11.6875 0.90625,0.40625 5.34375,-11.65625 -0.90625,-0.4375 z"
         id="path3960" />
      <path
         transform="matrix(0.98771422,0.18945813,-0.15138115,1.2361544,111.17436,-233.19567)"
         style="font-size:medium;font-style:normal;font-variant:normal;font-weight:normal;font-stretch:normal;text-indent:0;text-align:start;text-decoration:none;line-height:normal;letter-spacing:normal;word-spacing:normal;text-transform:none;direction:ltr;block-progression:tb;writing-mode:lr-tb;text-anchor:start;color:#000000;fill:none;stroke:#ffffff;stroke-width:1.70000005;stroke-linecap:round;stroke-linejoin:round;stroke-miterlimit:4;stroke-opacity:1;stroke-dasharray:none;marker:none;visibility:visible;display:inline;overflow:visible;filter:url(#filter3956);enable-background:accumulate;font-family:Bitstream Vera Sans;-inkscape-font-specification:Bitstream Vera Sans"
         d="m 203.15407,714.17986 -0.85771,0.49081 6.75389,12.28011 0.0516,0.12989 0.11918,0.073 15.80373,9.16909 0.0907,0.0391 0.0933,0.008 4.33749,0.62395 0.14795,-0.99097 -4.27522,-0.61859 -15.56536,-9.02313 -6.69965,-12.18134 z"
         id="path3976" />
      <path
         id="path3978"
         d="m 388.50048,711.61074 -5.34375,11.6875 0.90625,0.40625 5.34375,-11.65625 -0.90625,-0.4375 z"
         style="font-size:medium;font-style:normal;font-variant:normal;font-weight:normal;font-stretch:normal;text-indent:0;text-align:start;text-decoration:none;line-height:normal;letter-spacing:normal;word-spacing:normal;text-transform:none;direction:ltr;block-progression:tb;writing-mode:lr-tb;text-anchor:start;opacity:0.83154123;color:#000000;fill:none;stroke:#ffffff;stroke-width:1px;stroke-linecap:round;stroke-linejoin:round;stroke-opacity:1;marker:none;visibility:visible;display:inline;overflow:visible;filter:url(#filter3980);enable-background:accumulate;font-family:Bitstream Vera Sans;-inkscape-font-specification:Bitstream Vera Sans"
         transform="matrix(1.0684532,1.0224938,-1.826829,0.68077723,1083.3538,-187.57578)"
         inkscape:transform-center-x="19.389881"
         inkscape:transform-center-y="2.038563" />
      <path
         d="m 393.0625,695.90625 c -0.14933,0.0136 -0.36922,0.0208 -0.53125,0.0312 -0.40437,1.13562 -0.77006,1.9708 -1.21875,3.40625 -0.78945,2.52561 -1.54899,5.18 -2.53125,7.6875 -0.49113,1.25375 -0.95943,2.44671 -2.03125,4.03125 -0.53591,0.79227 -1.19411,1.7308 -2.6875,2.8125 -1.49339,1.0817 -4.44759,2.28005 -7.4375,1.71875 -6.0713,-1.13976 -8.43505,-5.13707 -10.1875,-8.15625 -0.56482,-0.9731 -0.98575,-1.95435 -1.4375,-2.9375 -0.44538,0.81799 -1.10449,2.26037 -1.875,3.90625 -0.79535,1.69895 -1.68732,3.59002 -2.875,5.53125 -1.18768,1.94123 -2.24954,4.35348 -6.5625,6.25 -3.75479,1.65107 -7.87741,0.55236 -9.90625,-0.5 -0.68724,1.28193 -1.39297,2.62816 -2.375,4.09375 -1.15334,1.72125 -2.25335,3.8813 -6.21875,5.625 -2.5144,1.10566 -5.7688,0.98709 -7.84375,0.21875 -1.93453,-0.71634 -3.05523,-1.65558 -3.9375,-2.46875 -1.09467,1.82829 -2.66102,3.74696 -6.71875,5.53125 -3.20966,1.41137 -7.55043,0.52678 -9.59375,-0.78125 -0.44601,-0.28551 -0.65537,-0.56591 -1,-0.84375 -0.31269,0.91289 -0.58527,1.82886 -0.9375,2.71875 -0.47932,1.21095 -0.95361,2.38905 -1.75,3.71875 -0.79639,1.3297 -1.59468,3.21891 -5.21875,4.8125 1.38233,-0.60785 -0.14968,0.25623 -1.65625,1.96875 -1.50657,1.71252 -2.72436,4.26506 -7.59375,6.40625 -3.18101,1.39878 -6.06455,1.66837 -7.75,1.8125 -1.68545,0.14413 -2.06661,0.31165 -1.5,0.0625 -4.43953,1.95217 -10.2667,0.37888 -13.0625,-1.875 -1.50365,-1.21219 -2.55789,-2.43386 -3.40625,-3.65625 -3.30014,0.5595 -7.20567,-0.35236 -10.03125,-2.28125 -3.04704,-2.08007 -3.35927,-3.59367 -3.96875,-4.84375 -0.60948,-1.25008 -1.03102,-2.39576 -1.4375,-3.59375 -0.81296,-2.39598 -1.53778,-4.99241 -2.25,-7.5 -0.70909,-2.49658 -1.42065,-4.89822 -2,-6.46875 -1.53799,-0.29432 -4.58814,-0.86439 -7.625,-2.9375 -0.13563,-0.0926 -0.57899,-0.25334 -0.78125,-0.34375 -0.48741,1.14205 -0.86604,2.19686 -1.6875,3.5625 -0.65977,1.09684 -1.32948,2.41334 -3.59375,4 -2.26427,1.58666 -8.15587,2.19456 -11.1875,0.125 -4.38991,-2.99679 -4.55557,-5.33051 -5.53125,-7.625 -0.97568,-2.29449 -1.76194,-4.64377 -2.5,-6.875 -0.73806,-2.23123 -1.4488,-4.36054 -1.96875,-5.6875 -0.14735,-0.37604 -0.186,-0.4479 -0.28125,-0.65625 -3.32766,-2.74756 -5.24848,-5.80754 -6.75,-8.59375 -1.36035,0.28036 -2.74815,0.55091 -4.3125,0.6875 -6.25314,0.54601 -8.7503,-0.87672 -9.84375,-0.78125 -0.1795,0.0157 -3.84389,1.81987 -9.84375,2.34375 3.70368,-0.32339 2.18713,-0.7447 0.5,0.84375 -1.68713,1.58845 -3.78311,5.08066 -10.375,5.65625 -4.03779,0.35256 -6.36596,-0.7497 -8.125,-1.78125 -0.76905,1.26969 -1.60433,2.66226 -2.875,4.25 -1.38871,1.73523 -3.29891,4.65448 -8.6875,5.125 -3.05787,0.26701 -5.60479,-0.90773 -7.125,-1.96875 -0.481,-0.33571 -0.63305,-0.61152 -1,-0.9375 -0.51268,1.65364 -0.96894,3.31597 -1.59375,4.90625 -0.52366,1.33284 -1.05852,2.62069 -2.0625,4.15625 -0.89527,1.36929 -2.42536,3.85122 -6.46875,4.71875 l 0,72.5625 313.28125,0 0,-71.75 c -3.72397,-1.17373 -4.9207,-3.43615 -5.75,-4.78125 -0.40481,-0.65659 -0.56126,-1.21608 -0.84375,-1.8125 -0.32975,0.71818 -0.4967,1.36863 -1.0625,2.21875 -0.5658,0.85012 -1.26546,1.85481 -2.8125,2.96875 -1.54704,1.11394 -4.55063,2.27242 -7.5,1.71875 -4.2688,-0.80138 -6.548,-2.70269 -8.1875,-3.78125 -1.6395,-1.07856 -2.68387,-1.31013 -1.53125,-1.09375 -7.42486,-1.39389 -8.57918,-5.47224 -10.21875,-7.5 -0.69126,-0.85493 -1.16002,-1.38185 -1.46875,-1.71875 -2.21868,-0.86291 -3.495,-2.19827 -4.375,-3.21875 -1.11915,-1.2978 -1.7793,-2.44812 -2.375,-3.5625 -1.19141,-2.22876 -2.05513,-4.40217 -2.875,-6.4375 -0.41217,-1.02322 -0.67411,-1.59493 -1.03125,-2.4375 z"
         id="path3998"
         style="fill:#4d4d4d;fill-opacity:1;stroke:none"
         inkscape:original="M 368.5625 685.34375 C 368.5625 685.34375 365.04059 694.98121 359.3125 697.5 C 356.66047 698.66618 353.5632 710.47439 350.09375 712 C 347.22242 713.26259 344.11235 706.90646 340.84375 708.34375 C 337.8766 709.64849 334.77252 719.82095 331.59375 721.21875 C 328.56682 722.54978 325.43381 712.62747 322.3125 714 C 319.23815 715.35188 316.16809 723.14813 313.09375 724.5 C 309.9726 725.87245 306.8705 711.85657 303.84375 713.1875 C 300.66492 714.58532 297.56093 732.82026 294.59375 734.125 C 291.32546 735.56216 288.2148 741.23753 285.34375 742.5 C 281.8749 744.02535 278.74538 743.209 276.09375 744.375 C 270.36586 746.8937 266.875 733.375 266.875 733.375 C 266.875 733.375 263.43557 740.90503 258.21875 737.34375 C 255.69702 735.62228 252.77001 717.23078 249.59375 715.0625 C 246.84993 713.18942 243.91392 714.03185 240.9375 712 C 238.07508 710.04595 235.14365 709.61028 232.28125 707.65625 C 229.30507 705.62455 226.4311 721.21668 223.6875 719.34375 C 220.51087 717.17521 217.55318 701.56535 215.03125 699.84375 C 209.81496 696.28283 206.375 686.5 206.375 686.5 C 206.375 686.5 202.65721 688.55886 196.53125 689.09375 C 193.71338 689.3398 190.39318 687.98894 186.6875 688.3125 C 183.63724 688.57884 180.33661 690.35127 176.84375 690.65625 C 173.69334 690.93133 170.36819 696.85942 166.96875 697.15625 C 163.75823 697.43658 160.46633 693.39575 157.125 693.6875 C 153.86902 693.97179 150.57828 704.46211 147.28125 704.75 C 143.98427 705.03789 140.69345 693.49695 137.4375 693.78125 C 134.09624 694.07299 130.80422 715.65718 127.59375 715.9375 C 125.31071 716.13685 123.05352 705.32133 120.875 698.25 L 120.875 806.03125 L 452.03125 806.03125 L 452.03125 713.09375 C 450.07961 714.94549 448.13626 717.36585 446.1875 717 C 442.93656 716.3897 439.71048 694.50895 436.5 693.90625 C 433.22723 693.29185 429.96936 717.44224 426.78125 716.84375 C 423.48239 716.22446 420.22385 712.56223 417.0625 711.96875 C 413.72984 711.3431 410.50046 703.96174 407.375 703.375 C 403.99127 702.73977 400.72898 687.2331 397.65625 686.65625 C 394.18369 686.00429 390.94772 687.24682 387.96875 686.6875 C 384.28654 685.99624 381.03468 707.29816 378.28125 706.78125 C 372.16612 705.63326 368.5625 685.34375 368.5625 685.34375 z "
         inkscape:radius="-8.9510145"
         sodipodi:type="inkscape:offset" />
      <path
         id="rect4000"
         d="m 120.73887,475.2052 0,60.125 c 14.95823,-1.91487 30.2086,-2.90625 45.6875,-2.90625 116.98767,0 220.80187,56.38675 285.75,143.46875 l 0,-200.6875 -331.4375,0 z"
         style="opacity:0.28673832;fill:#ffffff;fill-opacity:1;stroke:none;filter:url(#filter4009)" />
    </g>
  </g>
</svg>
